<?xml version="1.0" standalone="no"?>
<!DOCTYPE svg PUBLIC "-//W3C//DTD SVG 20010904//EN"
 "http://www.w3.org/TR/2001/REC-SVG-20010904/DTD/svg10.dtd">
<svg version="1.0" xmlns="http://www.w3.org/2000/svg"
 width="260.000000pt" height="260.000000pt" viewBox="0 0 260.000000 260.000000"
 preserveAspectRatio="xMidYMid meet">
<metadata>
Created by potrace 1.11, written by Peter Selinger 2001-2013
</metadata>
<g transform="translate(0.000000,260.000000) scale(0.100000,-0.100000)"
fill="#000000" stroke="none">
<path d="M48 2589 c-10 -5 -24 -33 -33 -61 -13 -45 -15 -202 -15 -1228 0
-1028 2 -1183 15 -1228 9 -29 24 -56 35 -62 26 -14 2474 -14 2500 0 11 6 26
33 35 62 13 45 15 200 15 1228 0 1028 -2 1183 -15 1228 -9 29 -24 56 -35 62
-26 14 -2478 13 -2502 -1z m2270 -346 c-13 -3 -18 -15 -18 -44 0 -21 -4 -39
-10 -39 -5 0 -10 18 -10 39 0 29 -5 41 -17 44 -10 3 2 5 27 5 25 0 37 -2 28
-5z m56 -33 l10 -33 11 33 c18 53 35 50 34 -7 -2 -45 -2 -46 -8 -13 l-6 35
-12 -32 c-7 -18 -16 -33 -22 -33 -5 0 -13 15 -17 33 l-8 32 -7 -35 c-6 -33 -6
-32 -8 13 -1 57 18 61 33 7z m-1130 -75 c38 -11 99 -15 268 -15 187 0 218 -2
218 -15 0 -12 -16 -15 -85 -15 -47 0 -85 -1 -85 -2 0 -6 297 -708 301 -712 3
-3 75 156 161 352 l156 357 -104 3 c-83 2 -104 6 -104 17 0 13 29 15 185 15
158 0 185 -2 185 -15 0 -12 -13 -15 -58 -15 l-59 0 -78 -172 c-115 -255 -210
-480 -375 -894 -226 -565 -255 -620 -352 -668 -42 -21 -66 -26 -126 -26 -99 0
-148 16 -198 65 -104 99 -70 251 60 270 84 13 154 -22 170 -85 3 -15 -3 -52
-16 -92 -20 -63 -20 -68 -4 -92 19 -30 44 -33 92 -10 73 35 122 119 233 397
l70 174 -60 144 c-33 79 -67 159 -75 178 l-14 34 -38 -59 c-76 -116 -191 -198
-324 -229 -175 -41 -290 1 -379 138 l-39 60 0 -421 0 -422 85 0 c78 0 85 -2
85 -20 0 -20 -7 -20 -320 -20 -313 0 -320 0 -320 20 0 18 7 20 80 20 l80 0 0
855 0 855 -80 0 c-64 0 -80 3 -80 15 0 13 33 15 235 15 l235 0 0 -87 1 -88 21
40 c47 89 111 145 191 166 46 12 204 2 261 -16z"/>
<path d="M955 2101 c-127 -57 -179 -217 -178 -541 1 -237 27 -347 104 -435 46
-52 99 -75 180 -75 166 0 209 108 209 527 0 259 -12 352 -57 443 -22 43 -37
60 -73 78 -55 27 -129 29 -185 3z"/>
</g>
</svg>
