<?xml version="1.0" encoding="utf-8"?>
<svg width="1749px" height="757px" viewbox="0 0 1749 757" version="1.1" xmlns:xlink="http://www.w3.org/1999/xlink" xmlns="http://www.w3.org/2000/svg">
  <defs>
    <path d="M0 0L1748.51 0L1748.51 756.42L0 756.42L0 0Z" id="path_1" />
    <clipPath id="mask_1">
      <use xlink:href="#path_1" />
    </clipPath>
  </defs>
  <g id="py-policyyarn">
    <path d="M0 0L1748.51 0L1748.51 756.42L0 756.42L0 0Z" id="Background" fill="none" fill-rule="evenodd" stroke="none" />
    <g clip-path="url(#mask_1)">
      <g id="Layer_x0020_1" transform="translate(0 -9.1552734E-05)">
        <path d="M92.34 141.02L92.34 6.62002C94.29 6.23002 96.63 6.23002 99.35 5.84002C102.08 5.45002 104.81 5.45002 107.53 5.45002C130.13 5.45002 145.71 11.29 154.28 23.37C162.85 35.45 167.13 52.59 167.13 75.18C167.13 98.94 162.07 116.08 152.33 125.82C142.59 135.95 126.62 141.01 104.41 141.01L92.33 141.01L92.34 141.02ZM92.34 273.09L92.34 146.48L108.31 146.48C128.96 146.48 147.27 144.53 162.46 140.64C177.65 136.75 190.51 131.29 200.64 124.67C210.77 118.05 218.17 110.26 223.24 101.3C228.3 92.34 230.64 82.99 230.64 72.86C230.64 57.67 226.74 45.59 219.34 35.85C211.55 26.5 201.81 19.1 190.51 13.64C179.21 8.58001 166.75 4.68 153.11 2.73C139.47 0.780006 127.01 0 115.32 0C102.07 0 88.83 0 75.58 0.389999C62.34 0.779999 49.09 1.17 35.84 1.17L0 1.17L0 6.62L35.84 6.62L35.84 273.09L0 273.09L0 278.54L128.17 278.54L128.17 273.09L92.33 273.09L92.34 273.09Z" transform="translate(870.69995 124.96008)" id="Shape" fill="#FFFFFF" fill-rule="evenodd" stroke="none" />
        <path d="M95.0601 172.58C84.9301 172.58 77.14 170.24 71.3 165.18C65.4601 160.51 61.5601 154.27 58.8301 146.48C56.1001 138.69 54.16 129.73 53.77 119.6C52.99 109.47 52.6 99.34 52.6 88.82C52.6 78.3 52.99 68.17 53.77 58.04C54.16 48.3 56.11 39.34 58.8301 31.55C61.5601 23.76 65.4501 17.53 71.3 12.46C77.14 7.79001 84.9301 5.45001 95.0601 5.45001C105.19 5.45001 112.98 7.79001 118.82 12.46C124.66 17.52 128.95 23.76 131.68 31.55C134.41 39.34 135.97 48.3 136.74 58.04C137.13 68.17 137.52 78.3 137.52 88.82C137.52 99.34 137.13 109.47 136.74 119.6C135.96 129.73 134.4 138.69 131.68 146.48C128.95 154.27 124.67 160.5 118.82 165.18C112.98 170.25 105.19 172.58 95.0601 172.58L95.0601 172.58ZM95.0601 0C81.4201 0 68.9601 2.34 57.66 7.00999C45.9701 12.07 35.8401 18.31 27.27 26.49C18.7001 34.67 12.0801 44.02 7.40002 54.54C2.33997 65.45 0 76.75 0 88.82C0 100.9 2.33997 112.58 7.40002 123.1C12.0701 134.01 18.7001 143.36 27.27 151.54C35.84 159.72 45.97 165.95 57.66 170.63C68.9601 175.3 81.4201 177.64 95.0601 177.64C108.69 177.64 121.16 175.3 132.85 170.63C144.15 165.96 154.28 159.72 162.85 151.54C171.42 143.36 178.04 134.01 183.11 123.1C187.78 112.58 190.12 100.89 190.12 88.82C190.12 76.74 187.78 65.45 183.11 54.54C178.05 44.02 171.42 34.67 162.85 26.49C154.28 18.31 144.15 12.08 132.85 7.01001C121.16 2.34001 108.7 1.52588e-05 95.0601 1.52588e-05L95.0601 0Z" transform="translate(1051.1799 230.93008)" id="Shape" fill="#FFFFFF" fill-rule="evenodd" stroke="none" />
        <path d="M0 0L0 5.45L26.1001 5.45L26.1001 275.43L0 275.43L0 280.89L99.73 280.89L99.73 275.43L73.63 275.43L73.63 0L0 0Z" transform="translate(1225.46 122.62009)" id="Polygon" fill="#FFFFFF" fill-rule="evenodd" stroke="none" />
        <path d="M22.21 27.66C22.21 35.06 24.9399 41.68 30.39 47.14C35.84 52.59 42.47 55.32 49.87 55.32C57.27 55.32 63.89 52.59 69.35 47.14C74.7999 41.69 77.53 35.06 77.53 27.66C77.53 20.26 74.8 13.64 69.35 8.18C63.9 2.73 57.27 0 49.87 0C42.47 0 35.85 2.73 30.39 8.18C24.9401 13.63 22.21 20.26 22.21 27.66L22.21 27.66ZM0 111.42L0 116.87L26.1 116.87L26.1 273.09L0 273.09L0 278.54L99.73 278.54L99.73 273.09L73.63 273.09L73.63 111.41L0 111.41L0 111.42Z" transform="translate(1310.8301 124.9601)" id="Shape" fill="#FFFFFF" fill-rule="evenodd" stroke="none" />
        <path d="M0.0102539 88.8201C0.0102539 102.06 1.96021 113.36 5.85022 123.1C9.36023 132.84 14.4202 140.63 20.6503 147.25C26.4902 153.87 33.1202 159.33 40.5203 163.22C47.9203 167.12 54.9303 170.23 62.3402 172.18C69.3502 174.52 75.9802 176.08 82.2102 176.85C88.0502 177.24 92.7302 177.63 96.2302 177.63C108.7 177.63 119.22 176.07 127.4 172.57C135.58 169.06 142.2 165.17 147.27 160.1C152.34 155.43 156.62 150.36 159.35 144.52C162.08 139.07 164.02 134 165.19 129.33L159.74 127.38C159.35 129.72 157.79 133.22 155.84 138.29C153.5 143.35 150 148.42 145.71 153.48C141.42 158.54 135.58 163.22 128.18 166.73C120.78 170.63 111.82 172.57 101.3 172.57C90.0001 172.57 81.4302 169.84 74.8102 164.78C68.1902 159.72 63.5101 152.7 60.0101 144.52C56.5101 136.34 54.5602 126.99 53.7801 116.86C53.0001 106.73 52.6101 96.6 52.6101 86.47C52.6101 75.56 53.0001 65.04 54.1702 55.3C54.9502 45.56 56.9001 36.99 60.0101 29.59C62.7401 22.19 67.0201 16.35 72.4801 12.06C77.9301 7.77003 85.3401 5.44003 94.6901 5.44003C101.31 5.44003 107.16 7.00003 111.83 9.73003C116.12 12.85 118.45 17.13 118.45 22.2C118.45 23.37 118.06 24.93 117.67 27.65C116.89 30.38 116.11 33.1 115.72 35.83C114.94 38.56 114.16 41.28 113.77 44.01C112.99 46.74 112.6 48.3 112.6 49.46C112.6 56.47 115.33 61.15 120.39 63.1C125.45 65.44 130.91 66.61 136.75 66.61C144.93 66.61 151.16 64.66 155.45 61.16C159.74 57.65 162.07 51.81 162.07 43.24C162.07 36.62 160.51 30.77 157.4 25.32C153.89 20.26 149.61 15.58 143.76 11.69C137.92 8.18001 130.9 5.07001 122.72 3.12C114.54 1.17 105.58 0 95.84 0C80.26 0 66.62 2.73 54.9299 8.57001C42.85 14.41 33.11 21.43 24.9299 30C16.7499 38.96 10.5199 48.31 6.22998 58.83C1.93994 69.35 0 79.09 0 88.83L0.0102539 88.8201Z" transform="translate(1401.5797 230.93002)" id="Shape" fill="#FFFFFF" fill-rule="evenodd" stroke="none" />
        <path d="M73.6501 118.07L121.18 5.48L93.9102 5.48L93.9102 0.0299988L192.86 0.0299988L192.86 5.48L172.21 5.48L98.9701 180.79L115.72 222.48C117.67 227.15 119.61 232.22 121.95 238.06C124.68 243.9 127.4 249.36 130.52 254.42C134.02 259.48 137.53 263.38 141.43 266.89C145.72 270.39 150 271.95 154.68 271.95C156.63 271.95 158.57 271.17 160.13 270C161.69 268.44 162.47 266.11 162.47 263.38C162.47 259.48 161.69 255.98 159.74 253.25C158.18 250.52 157.4 246.63 157.4 241.95C157.4 236.49 159.74 232.6 164.02 229.87C168.3 227.14 172.98 225.58 178.04 225.58C184.66 225.58 190.51 227.14 195.57 230.64C200.24 234.15 202.58 239.6 202.58 247C202.58 256.74 199.07 264.53 191.67 270.37C183.88 275.83 174.53 278.55 162.84 278.55C151.93 278.55 143.36 275.82 136.74 270.37C130.12 264.92 124.27 256.35 119.21 244.66C114.15 233.36 108.3 220.51 102.46 206.09C96.6201 191.29 89.9901 174.14 82.2001 155.05C74.8 135.96 65.8401 113.76 55.3201 89.21C44.8001 64.67 32.3301 36.62 17.92 5.45L0 5.45L0 0L56.49 0L56.49 5.45L24.15 5.45L73.63 118.04L73.6501 118.07Z" transform="translate(1545.9099 236.3501)" id="Shape" fill="#FFFFFF" fill-rule="evenodd" stroke="none" />
        <g id="_105554249406528" transform="translate(862.20996 411.7501)">
          <path d="M128.93 118.07L81.4 5.4801L108.67 5.4801L108.67 0.0300903L9.72003 0.0300903L9.72003 5.4801L30.3701 5.4801L103.61 180.79L86.86 222.48C84.91 227.15 82.97 232.22 80.6301 238.06C77.9001 243.9 75.1801 249.36 72.0601 254.42C68.5601 259.48 65.05 263.38 61.1501 266.89C56.8601 270.39 52.5801 271.95 47.9001 271.95C45.9501 271.95 44.0101 271.17 42.4501 270C40.8901 268.44 40.1101 266.11 40.1101 263.38C40.1101 259.48 40.8901 255.98 42.84 253.25C44.4 250.52 45.1801 246.63 45.1801 241.95C45.1801 236.49 42.84 232.6 38.5601 229.87C34.28 227.14 29.6 225.58 24.54 225.58C17.92 225.58 12.0701 227.14 7.01001 230.64C2.34003 234.15 0 239.6 0 247C0 256.74 3.51001 264.53 10.91 270.37C18.7 275.83 28.05 278.55 39.74 278.55C50.65 278.55 59.22 275.82 65.84 270.37C72.46 264.92 78.3099 256.35 83.37 244.66C88.43 233.36 94.28 220.51 100.12 206.09C105.96 191.29 112.59 174.14 120.38 155.05C127.78 135.96 136.74 113.76 147.26 89.21C157.78 64.67 170.25 36.62 184.66 5.45001L202.58 5.45001L202.58 0L146.09 0L146.09 5.45001L178.43 5.45001L128.95 118.04L128.93 118.07Z" transform="translate(0 5.429901)" id="Shape" fill="#FFFFFF" fill-rule="evenodd" stroke="none" />
          <path d="M102.47 75.97L102.47 127.39C102.47 134.79 101.69 141.41 100.13 146.48C98.5697 151.93 96.6198 156.22 93.8998 159.33C91.1698 162.84 88.4498 165.17 85.3298 166.73C81.8198 168.29 78.7098 169.07 75.1998 169.07C69.3599 169.07 64.6798 167.51 61.1798 164.78C57.6698 162.05 55.3398 158.94 53.7798 155.04C51.8298 151.15 51.0498 147.25 50.6598 142.96C50.2698 138.67 49.8798 135.17 49.8798 132.05C49.8798 124.26 51.0498 118.03 53.7798 112.96C56.1198 107.9 59.2297 104 63.1298 100.49C67.0198 96.9801 71.3098 94.2601 76.3698 91.9201C81.4298 89.9701 86.1097 87.6301 91.1698 85.3001C94.6798 83.3501 97.3998 81.7901 98.9598 80.2401C100.13 79.0701 101.3 77.5101 101.69 75.9501L102.47 75.9501L102.47 75.97ZM181.16 166.35L177.65 162.84C175.7 165.18 173.36 167.13 171.42 168.29C169.08 169.46 166.36 170.24 162.85 170.24C157.01 170.24 153.5 168.29 152.33 164.4C150.77 160.9 149.99 156.61 149.99 151.55L149.99 54.93C149.99 44.02 148.04 35.06 144.53 27.66C140.64 20.65 135.57 15.19 129.34 10.91C122.72 6.62 115.32 3.89999 106.75 2.34C97.79 0.779999 88.4399 0 78.7 0C70.13 0 61.95 0.779999 54.1599 2.73001C45.9799 4.68002 38.97 7.02002 32.7299 10.52C26.4999 14.03 21.4298 18.7 17.9298 23.77C14.0298 29.22 12.0898 35.46 12.0898 42.08C12.0898 46.37 12.8699 49.87 14.4298 52.6C15.5999 55.33 17.5498 57.27 19.4899 58.44C21.4398 60 24.1599 60.78 26.8899 61.17C29.6199 61.56 31.95 61.95 34.6799 61.95C36.6299 61.95 38.97 61.95 41.6899 61.56C44.4199 61.56 46.75 61.17 49.48 60C51.8199 58.83 53.77 57.27 55.71 54.94C57.6599 52.99 58.4399 49.87 58.4399 45.98C58.4399 45.2 58.4399 43.64 58.0499 41.69C57.6599 39.74 57.6599 37.4 57.2699 35.07C56.8799 32.73 56.8799 30.4 56.4899 28.45C56.0999 26.5 56.0999 25.33 56.0999 24.55C56.0999 17.15 58.4398 12.08 62.7198 9.36002C67.0099 6.63 72.4598 5.46002 78.2998 5.46002C87.6498 5.46002 93.8798 8.19003 97.3898 14.03C100.89 19.87 102.45 26.11 102.45 33.12L102.45 56.88C102.45 61.94 101.67 65.84 100.5 68.96C98.9398 72.08 96.2098 74.8 92.7098 77.14C89.1998 79.87 84.1399 82.2 77.5199 84.15C70.8999 86.49 61.9399 89.21 51.4199 92.33C44.7999 94.28 38.5599 96.62 32.72 98.56C26.49 100.9 21.03 103.62 16.36 107.13C11.2999 110.64 7.40002 114.92 4.67004 119.99C1.55005 125.05 0 131.68 0 139.08C0 146.48 1.56006 152.33 5.06006 157.39C8.57007 162.45 12.8501 166.74 18.3101 169.47C23.76 172.2 29.6101 174.53 36.2301 175.7C42.8501 176.87 49.0901 177.65 55.3201 177.65C68.9601 177.65 79.4701 175.7 86.8701 172.2C94.2701 168.69 99.7301 161.68 104.01 151.16L104.79 151.16C106.35 159.34 110.24 165.96 116.87 170.64C123.1 175.31 132.84 177.65 146.09 177.65C151.93 177.65 158.56 177.26 165.57 176.09C172.19 174.92 177.65 171.8 181.15 166.35L181.16 166.35Z" transform="translate(183.65027 0)" id="Shape" fill="#FFFFFF" fill-rule="evenodd" stroke="none" />
          <path d="M0.00012207 3.49002L0.00012207 8.94003L25.3201 8.94003L25.3201 165.16L0.00012207 165.16L0.00012207 170.61L103.63 170.61L103.63 165.16L72.8501 165.16L72.8501 65.43C72.8501 57.25 74.0201 49.46 76.7501 42.83C79.0901 36.21 81.8102 30.75 85.3201 26.08C88.8301 21.41 92.3301 17.9 96.2301 15.17C100.13 12.83 103.24 11.66 105.97 11.66C108.31 11.66 110.26 12.05 111.42 12.83C112.59 14 113.37 14.78 113.76 15.95C114.15 17.12 114.54 18.29 114.93 19.46C114.93 20.63 114.93 21.02 114.93 21.02C114.93 21.41 114.93 22.19 114.54 24.14C114.15 26.09 114.15 28.03 113.76 29.98C113.37 32.32 112.98 34.27 112.59 36.21C112.2 38.16 112.2 39.72 112.2 40.5C112.2 47.12 114.54 51.8 119.6 54.14C124.66 56.87 130.12 58.04 135.96 58.04C144.14 58.04 150.37 55.7 154.27 51.42C157.78 47.13 159.73 40.9 159.73 33.11C159.73 22.59 156.22 14.41 149.6 8.57001C142.98 2.73001 134.02 0 123.11 0C110.25 0 99.74 3.5 91.9399 10.52C83.7599 17.92 77.5299 26.49 72.85 36.23L72.0699 36.23L72.0699 3.50998L0 3.50998L0.00012207 3.49002Z" transform="translate(352.93994 1.9599915)" id="Shape" fill="#FFFFFF" fill-rule="evenodd" stroke="none" />
          <path d="M0 165.19L0 170.64L97.79 170.64L97.79 165.19L73.25 165.19L73.25 81.82C73.25 69.74 74.42 59.61 77.14 50.65C79.87 41.69 83.37 34.2899 87.66 28.44C91.9501 22.6 96.62 17.92 102.46 14.81C108.3 12.08 114.15 10.52 120.38 10.52C127.78 10.52 134.02 12.86 138.3 17.92C142.59 22.9799 144.92 31.17 144.92 42.0699L144.92 165.18L120.77 165.18L120.77 170.63L218.55 170.63L218.55 165.18L192.45 165.18L192.45 55.32C192.45 38.18 187.78 24.54 178.43 14.8C168.69 5.06 155.45 0 138.3 0C126.61 0 116.87 1.56 109.08 5.06C101.29 8.56 95.0602 12.85 89.9902 17.53C84.9302 22.2 81.4203 26.88 78.6902 31.55C75.9602 36.61 74.4001 40.12 73.2402 42.46L72.4602 42.46L72.4602 3.5L0.000244141 3.5L0.000244141 8.95001L25.7102 8.95001L25.7102 165.17L0.000244141 165.17L0 165.19Z" transform="translate(493.77002 1.940033)" id="Shape" fill="#FFFFFF" fill-rule="evenodd" stroke="none" />
        </g>
        <path d="M22.01 0L22.01 3.22L12.86 3.22L12.86 27.11L9.15002 27.11L9.15002 3.22L0 3.22L0 0L22.01 0Z" transform="translate(1553.89 425.71008)" id="Polygon" fill="#FFFFFF" fill-rule="evenodd" stroke="none" />
        <path d="M0 0L5.25 0L13.04 22.91L20.79 0L25.9701 0L25.9701 27.11L22.4901 27.11L22.4901 11.12C22.4901 10.55 22.4901 9.65002 22.5301 8.36002C22.5702 7.07001 22.5702 5.71002 22.5702 4.24002L14.8202 27.12L11.1902 27.12L3.40015 4.24002L3.40015 5.07001C3.40015 5.75 3.40015 6.73001 3.44019 8.10001C3.48022 9.45999 3.52014 10.48 3.52014 11.13L3.52014 27.12L0.00012207 27.12L0.00012207 0.00997925L0 0Z" transform="translate(1579.18 425.71008)" id="1" fill="#FFFFFF" fill-rule="evenodd" stroke="none" />
        <path d="M-0 42.2901L0 714.14C0 737.36 9.33 756.42 20.69 756.42L738.09 756.42C749.46 756.42 758.78 737.36 758.78 714.14L758.78 42.29C758.78 19.07 749.45 0 738.09 0L20.69 0C9.33 0 1.90735e-06 19.06 1.90735e-06 42.29L-0 42.2901Z" id="Shape" fill="#161722" fill-rule="evenodd" stroke="none" />
        <path d="M137.41 167.38C137.41 151.3 138.14 133.76 140.33 115.49C141.79 97.22 145.45 79.68 150.56 64.33C155.68 48.98 163.72 35.83 174.68 25.59C185.64 15.36 199.53 10.24 217.8 10.24C230.23 10.24 241.19 13.16 249.23 18.28C257.27 23.4 264.58 32.17 269.7 44.59C274.82 57.02 279.2 73.09 281.39 92.83C283.58 113.3 284.32 138.14 284.32 167.38C284.32 191.5 283.59 212.69 282.86 231.7C281.4 251.43 278.47 267.51 274.82 281.4C270.43 295.29 264.59 305.52 256.55 312.83C248.51 320.14 237.55 323.79 223.66 323.79C203.19 323.79 187.12 318.67 176.15 307.71C164.45 297.48 155.68 284.32 149.84 268.24C143.99 252.89 140.34 235.35 139.61 217.08C138.15 198.81 137.42 182.73 137.42 167.38L137.41 167.38ZM48.24 20.47L48.24 517.47L0 517.47L0 527.7L187.1 527.7L187.1 517.47L137.4 517.47L137.4 271.16L138.86 271.16C145.44 287.97 155.67 302.59 169.56 315.01C183.45 327.43 200.99 333.28 223.65 333.28C247.77 333.28 268.96 328.89 288.7 319.39C308.43 309.89 325.24 297.46 339.13 282.12C353.02 266.77 363.25 249.23 371.29 229.5C379.33 209.77 382.99 188.57 382.99 166.64C382.99 149.83 380.07 131.56 374.22 111.82C367.64 92.09 358.14 74.55 345.72 57.74C332.56 40.93 315.75 27.04 296.02 16.08C276.29 5.12 252.17 0 223.66 0C181.27 0 152.76 21.2 137.42 64.32L135.96 64.32L135.96 10.24L0.0200348 10.24L0.0200348 20.47L48.26 20.47L48.24 20.47Z" transform="translate(87.869995 128.65005)" id="Shape" fill="#FFFFFF" fill-rule="evenodd" stroke="none" />
        <path d="M241.93 221.46L152.76 10.24L203.92 10.24L203.92 0.00996399L41.24 0.00996399L41.24 10.24L57.01 10.24L194.42 339.13L162.99 417.33C159.58 426.1 155.56 435.85 150.93 446.57C146.3 457.29 140.94 467.4 134.85 476.9C128.76 486.4 121.94 494.32 114.38 500.65C106.83 506.98 98.67 510.15 89.9 510.15C86 510.15 82.59 508.81 79.67 506.13C76.75 503.45 75.28 499.43 75.28 494.07C75.28 486.76 76.86 480.43 80.03 475.07C83.2 469.71 84.78 462.64 84.78 453.87C84.78 443.64 80.64 435.96 72.35 430.85C64.07 425.74 55.3 423.18 46.04 423.18C33.37 423.18 22.53 426.35 13.52 432.68C4.50998 439.01 0 449.25 0 463.38C0 481.9 6.94 496.39 20.83 506.87C34.72 517.35 52.62 522.58 74.55 522.58C95.02 522.58 111.34 517.46 123.52 507.23C135.7 497 146.66 480.92 156.41 458.99C166.15 438.04 176.51 413.8 187.47 386.27C198.43 358.74 211.1 326.95 225.48 290.89C239.85 254.83 256.79 213.66 276.28 167.37C295.77 121.08 319.16 68.7 346.44 10.23L380.06 10.23L380.06 0L274.08 0L274.08 10.23L334.74 10.23L241.92 221.45L241.93 221.46Z" transform="translate(301.80002 138.89014)" id="Shape" fill="#FFFFFF" fill-rule="evenodd" stroke="none" />
        <path d="M22 0L22 3.22L12.85 3.22L12.85 27.12L9.14996 27.12L9.14996 3.22L0 3.22L0 0L22 0Z" transform="translate(657.51 101.040085)" id="Polygon" fill="#FFFFFF" fill-rule="evenodd" stroke="none" />
        <path d="M6.10352e-05 7.62939e-06L5.25006 7.62939e-06L13.04 22.91L20.79 0L25.97 0L25.97 27.11L22.4901 27.11L22.4901 11.12C22.4901 10.55 22.4901 9.65 22.53 8.36C22.57 7.07 22.57 5.71 22.57 4.24L14.82 27.12L11.19 27.12L3.40002 4.24L3.40002 5.07C3.40002 5.75 3.40002 6.73 3.44 8.1C3.47998 9.46 3.52002 10.48 3.52002 11.13L3.52002 27.12L0 27.12L0 0.00999451L6.10352e-05 7.62939e-06Z" transform="translate(682.7999 101.04008)" id="1#1" fill="#FFFFFF" fill-rule="evenodd" stroke="none" />
        <path d="M31.02 13.21C30.6299 9.72998 29.48 7.07996 27.4299 5.14996C25.39 3.21997 22.7399 2.27997 19.5399 2.27997C17.6099 2.27997 15.7899 2.66998 14.0699 3.49994C12.3599 4.32996 10.8099 5.53992 9.53992 7.08997C8.2699 8.63995 7.21991 10.5099 6.49994 12.67C5.77997 14.82 5.39996 17.31 5.39996 20.01C5.39996 23.49 6.05994 26.52 7.38995 29.17C8.71997 31.82 10.48 33.86 12.7499 35.35C15.0099 36.84 17.4999 37.56 20.2 37.56C22.58 37.56 24.95 37.01 27.27 35.9C29.59 34.85 31.47 33.25 32.96 31.21L34.39 32.37C32.79 34.52 31.08 36.23 29.26 37.39C27.44 38.55 25.62 39.38 23.79 39.82C21.97 40.21 20.26 40.43 18.77 40.43C16.01 40.43 13.47 39.93 11.21 38.94C8.89001 37.95 6.90002 36.56 5.25 34.74C3.53998 32.97 2.27002 30.88 1.38 28.5C0.440002 26.12 0 23.59 0 20.82C0 18.23 0.390015 15.69 1.21997 13.2C1.98999 10.71 3.14996 8.51001 4.75 6.52002C6.34998 4.53003 8.34003 2.92999 10.77 1.77002C13.14 0.610046 15.96 0 19.16 0C21.2 0 23.1901 0.280029 25.01 0.830017C26.83 1.38 28.6 2.21002 30.31 3.37L30.03 0.390015L33.0099 0.390015L33.0099 13.2L31.02 13.2L31.02 13.21Z" transform="translate(990.16003 641.5801)" id="Shape" fill="#FFFFFF" fill-rule="evenodd" stroke="none" />
        <path d="M13.86 29.37C11.27 29.37 8.94995 28.76 6.84998 27.55C4.75 26.39 3.09998 24.74 1.88 22.58C0.609985 20.48 0 18.05 0 15.35C0 12.42 0.609985 9.83002 1.81995 7.51001C3.03992 5.19 4.68994 3.37 6.78992 1.98999C8.88989 0.659973 11.2599 0 13.8599 0C16.4598 0 18.7699 0.609985 20.8699 1.82001C22.9698 3.09003 24.6299 4.75 25.8899 6.84003C27.1599 8.94 27.7699 11.31 27.7699 14.02C27.7699 16.83 27.1599 19.43 25.95 21.75C24.6799 24.12 23.0199 25.95 20.9299 27.33C18.83 28.71 16.46 29.37 13.86 29.37L13.86 29.37ZM14.2999 27.16C16.23 27.16 17.7799 26.61 18.9399 25.5C20.1 24.4 20.9299 22.96 21.4299 21.19C21.9299 19.42 22.1499 17.55 22.1499 15.61C22.1499 13.95 21.9799 12.3 21.71 10.7C21.38 9.10004 20.88 7.66003 20.22 6.34003C19.5599 5.07001 18.73 4.02002 17.6799 3.25C16.6299 2.47998 15.36 2.09003 13.8699 2.09003C11.9398 2.09003 10.3899 2.64001 9.17993 3.75C7.95996 4.84998 7.07996 6.28998 6.52991 8.06C5.91992 9.83002 5.6499 11.7 5.6499 13.75C5.6499 16.01 5.97986 18.17 6.58984 20.21C7.19983 22.25 8.18982 23.96 9.45984 25.23C10.7299 26.5001 12.3899 27.16 14.3198 27.16L14.2999 27.16Z" transform="translate(1028.47 652.6401)" id="1#2" fill="#FFFFFF" fill-rule="evenodd" stroke="none" />
        <path d="M0.369873 28.52L0.369873 26.86C1.52991 26.86 2.29993 26.58 2.74988 25.98C3.18982 25.4301 3.46985 24.65 3.5199 23.6C3.57996 22.61 3.62988 21.45 3.62988 20.1201L3.68994 7.53003C3.68994 6.92004 3.68994 6.37006 3.75 5.76001C3.75 5.15002 3.81006 4.54004 3.92004 3.94C3.26001 4 2.6001 4 1.98999 4.04999C1.32996 4.10998 0.670044 4.10998 0 4.15997L0 1.83997C1.59998 1.83997 2.87 1.77997 3.69995 1.61999C4.52991 1.45001 5.13989 1.28998 5.5199 1.07001C5.90991 0.850037 6.23987 0.630005 6.50989 0.350037L8.10986 0.350037C8.16992 0.630066 8.16992 0.900024 8.21985 1.23004C8.21985 1.56006 8.21985 1.95001 8.27991 2.33002C8.33997 2.72003 8.33997 3.21002 8.33997 3.71002C9.16992 2.99005 10.0499 2.38 11.0499 1.83002C11.9899 1.28003 13.0399 0.840027 14.1399 0.5C15.1899 0.169983 16.2899 0 17.3398 0C20.5398 0 22.8599 0.98999 24.3499 2.97998C25.8398 5.01996 26.5598 8.10998 26.5598 12.37L26.5598 22.64C26.5598 23.36 26.5598 24.02 26.5598 24.57C26.4998 25.18 26.4498 25.78 26.3398 26.39C26.9498 26.33 27.4999 26.33 28.1099 26.28C28.6599 26.28 29.2098 26.28 29.8198 26.22L29.8198 28.48L18.5598 28.48L18.5598 26.8201C19.7199 26.8201 20.4899 26.54 20.9298 25.9401C21.3698 25.3901 21.6498 24.61 21.6998 23.5601C21.7599 22.5701 21.8098 21.41 21.8098 20.0801L21.8098 12.3501C21.7498 9.20007 21.2598 6.77008 20.2598 5.1701C19.2097 3.57013 17.6097 2.74011 15.4597 2.80011C14.1298 2.86011 12.8698 3.19012 11.5997 3.8501C10.3297 4.51007 9.22974 5.34009 8.39978 6.39008C8.45984 6.6701 8.45984 7.00006 8.45984 7.38007C8.45984 7.77008 8.45984 8.15009 8.45984 8.54004L8.39978 22.6201C8.39978 23.34 8.39978 24.0001 8.39978 24.55C8.33972 25.16 8.2898 25.7601 8.17981 26.3701C8.78979 26.3101 9.33984 26.3101 9.94983 26.2601C10.4999 26.2601 11.0498 26.2601 11.6598 26.2001L11.6598 28.4601L0.39978 28.4601L0.369873 28.52Z" transform="translate(1060.5602 652.60004)" id="2" fill="#FFFFFF" fill-rule="evenodd" stroke="none" />
        <path d="M0.369873 28.52L0.369873 26.86C1.52991 26.86 2.29993 26.58 2.74988 25.98C3.18982 25.4301 3.46985 24.65 3.5199 23.6C3.57996 22.61 3.62988 21.45 3.62988 20.1201L3.68994 7.53003C3.68994 6.92004 3.68994 6.37006 3.75 5.76001C3.75 5.15002 3.81006 4.54004 3.92004 3.94C3.26001 4 2.6001 4 1.98999 4.04999C1.32996 4.10998 0.670044 4.10998 0 4.15997L0 1.83997C1.59998 1.83997 2.87 1.77997 3.69995 1.61999C4.52991 1.45001 5.13989 1.28998 5.5199 1.07001C5.90991 0.850037 6.23987 0.630005 6.50989 0.350037L8.10986 0.350037C8.16992 0.630066 8.16992 0.900024 8.21985 1.23004C8.21985 1.56006 8.21985 1.95001 8.27991 2.33002C8.33997 2.72003 8.33997 3.21002 8.33997 3.71002C9.16992 2.99005 10.0499 2.38 11.0499 1.83002C11.9899 1.28003 13.0399 0.840027 14.1399 0.5C15.1899 0.169983 16.2899 0 17.3398 0C20.5398 0 22.8599 0.98999 24.3499 2.97998C25.8398 5.01996 26.5598 8.10998 26.5598 12.37L26.5598 22.64C26.5598 23.36 26.5598 24.02 26.5598 24.57C26.4998 25.18 26.4498 25.78 26.3398 26.39C26.9498 26.33 27.4999 26.33 28.1099 26.28C28.6599 26.28 29.2098 26.28 29.8198 26.22L29.8198 28.48L18.5598 28.48L18.5598 26.8201C19.7199 26.8201 20.4899 26.54 20.9298 25.9401C21.3698 25.3901 21.6498 24.61 21.6998 23.5601C21.7599 22.5701 21.8098 21.41 21.8098 20.0801L21.8098 12.3501C21.7498 9.20007 21.2598 6.77008 20.2598 5.1701C19.2097 3.57013 17.6097 2.74011 15.4597 2.80011C14.1298 2.86011 12.8698 3.19012 11.5997 3.8501C10.3297 4.51007 9.22974 5.34009 8.39978 6.39008C8.45984 6.6701 8.45984 7.00006 8.45984 7.38007C8.45984 7.77008 8.45984 8.15009 8.45984 8.54004L8.39978 22.6201C8.39978 23.34 8.39978 24.0001 8.39978 24.55C8.33972 25.16 8.2898 25.7601 8.17981 26.3701C8.78979 26.3101 9.33984 26.3101 9.94983 26.2601C10.4999 26.2601 11.0498 26.2601 11.6598 26.2001L11.6598 28.4601L0.39978 28.4601L0.369873 28.52Z" transform="translate(1094.0801 652.60004)" id="3" fill="#FFFFFF" fill-rule="evenodd" stroke="none" />
        <path d="M13.48 29.3699C10.9399 29.3699 8.67993 28.76 6.63001 27.5499C4.58997 26.39 2.93005 24.6799 1.77002 22.4699C0.609985 20.3199 0 17.7199 0 14.7399C0 12.1499 0.609985 9.76996 1.77002 7.50995C2.93005 5.24994 4.53003 3.41992 6.63001 2.03998C8.72998 0.659973 11.16 0 13.92 0C15.4701 0 16.9 0.219971 18.28 0.719971C19.61 1.21997 20.76 1.98999 21.8101 2.97998C22.8601 4.02997 23.63 5.29999 24.2401 6.78998C24.8501 8.33997 25.1201 10.16 25.1201 12.2L5.69006 12.53C5.69006 15.34 6.02002 17.77 6.63001 19.87C7.23999 22.02 8.18005 23.62 9.56006 24.78C10.9401 25.9399 12.65 26.55 14.8 26.55C15.9601 26.55 17.12 26.33 18.3301 25.94C19.4901 25.55 20.5901 25 21.6401 24.28C22.6902 23.5601 23.5201 22.79 24.1201 21.96L25.4501 23.06C24.4601 24.61 23.2401 25.82 21.8601 26.76C20.4801 27.7 19.0402 28.36 17.55 28.75C16.0601 29.14 14.7301 29.36 13.4601 29.36L13.48 29.3699ZM5.85999 10.21L19.9399 10.21C19.9399 8.88995 19.7699 7.61993 19.3899 6.34998C18.9999 5.13 18.3398 4.13995 17.4598 3.31C16.5798 2.53998 15.4198 2.15002 13.9799 2.15002C11.8298 2.15002 10.0598 2.76001 8.67981 4.03003C7.24976 5.30005 6.30981 7.40002 5.86975 10.21L5.85999 10.21Z" transform="translate(1127.84 652.64014)" id="4" fill="#FFFFFF" fill-rule="evenodd" stroke="none" />
        <path d="M13.64 29.37C11.16 29.37 8.89001 28.82 6.84998 27.66C4.75 26.56 3.09998 24.95 1.88 22.8C0.609985 20.7 0 18.16 0 15.18C0 13.25 0.329956 11.43 1.05005 9.59998C1.77002 7.77997 2.76001 6.17999 4.03003 4.69C5.30005 3.25 6.79004 2.09998 8.56006 1.27002C10.3301 0.440002 12.26 0 14.41 0C16.4501 0 18.27 0.330017 19.8201 0.940003C21.3101 1.54999 22.52 2.38001 23.3501 3.41998C24.1801 4.46997 24.6201 5.57001 24.6201 6.78998C24.6201 7.62 24.4001 8.27997 23.9601 8.82996C23.5201 9.43994 22.8601 9.70996 22.03 9.70996C21.0901 9.76996 20.48 9.42993 20.1 8.82996C19.71 8.21997 19.49 7.72998 19.49 7.22998C19.49 6.83997 19.55 6.45996 19.66 6.07001C19.77 5.67999 19.99 5.35004 20.3201 5.02002C20.04 4.14001 19.4901 3.48004 18.77 3.03003C18.05 2.64001 17.28 2.37006 16.51 2.20001C15.6801 2.09003 15.02 2.03003 14.52 2.03003C12.03 2.03003 9.94006 3.02002 8.22998 5.01001C6.52002 7.04999 5.64002 9.97998 5.64002 13.79C5.64002 16.28 6.03003 18.4301 6.84998 20.36C7.62 22.29 8.72998 23.78 10.16 24.83C11.6 25.93 13.25 26.49 15.13 26.49C16.84 26.49 18.5 26.05 20.1 25.11C21.7 24.17 22.9199 23.07 23.7999 21.74L25.2399 22.84C24.2999 24.39 23.1399 25.65 21.8198 26.59C20.4398 27.53 19.0598 28.2499 17.6798 28.6899C16.2399 29.1299 14.9198 29.3499 13.6498 29.3499L13.64 29.37Z" transform="translate(1157.44 652.6401)" id="5" fill="#FFFFFF" fill-rule="evenodd" stroke="none" />
        <path d="M11.64 36.2C10.8101 36.2 9.93005 36.09 9.05005 35.87C8.17004 35.59 7.34009 35.15 6.62 34.43C5.84998 33.71 5.23999 32.72 4.80005 31.34C4.36011 30.0099 4.14001 28.2499 4.14001 26.04L4.25 10.03L0 10.09L0 7.71997C0.939941 7.65997 1.93005 7.32996 2.93005 6.62C3.92004 5.96002 4.81006 5.02002 5.64002 3.85999C6.41003 2.70001 6.96997 1.36999 7.23999 0L9.12 0L9.12 7.72998L18.39 7.72998L18.39 9.88L9.12 9.98999L9.01001 25.34C9.01001 26.9999 9.18005 28.3799 9.44995 29.54C9.72998 30.6999 10.1699 31.58 10.7799 32.19C11.3899 32.8 12.2198 33.07 13.21 33.07C14.26 33.07 15.2 32.79 16.14 32.19C17.02 31.58 17.8 30.81 18.51 29.76L20 30.97C19.17 32.19 18.4 33.1201 17.63 33.84C16.8 34.56 16.03 35.06 15.3101 35.44C14.5901 35.77 13.8701 35.99 13.27 36.1C12.66 36.16 12.11 36.21 11.67 36.21L11.64 36.2Z" transform="translate(1185.44 645.81006)" id="6" fill="#FFFFFF" fill-rule="evenodd" stroke="none" />
        <path d="M0.429932 38.55C1.58997 38.55 2.35999 38.27 2.80994 37.67C3.24988 37.12 3.52991 36.34 3.57996 35.29C3.64001 34.3 3.68994 33.14 3.68994 31.81L3.68994 19.22C3.68994 18.61 3.68994 18.06 3.75 17.5099C3.81006 17.0099 3.85999 16.35 3.92004 15.6299C3.26001 15.6899 2.6001 15.6899 1.98999 15.7399C1.32996 15.7999 0.670044 15.7999 0 15.8499L0 13.5299C1.59998 13.5299 2.87 13.4699 3.75 13.3099C4.63 13.14 5.30005 12.9799 5.79004 12.7599C6.22998 12.54 6.56006 12.3199 6.84009 12.04L8.44006 12.04L8.44006 34.35C8.44006 35.0699 8.44006 35.73 8.44006 36.28C8.38 36.89 8.33008 37.49 8.22009 38.1C8.83008 38.04 9.38013 38.04 9.99011 37.99C10.5402 37.99 11.0901 37.99 11.7001 37.93L11.7001 40.19L0.440063 40.19L0.440063 38.53L0.429932 38.55ZM5.78992 6.58002C5.0199 6.58002 4.34998 6.25 3.74988 5.64001C3.13989 5.03003 2.86987 4.26001 2.86987 3.32001C2.86987 2.38 3.19983 1.60999 3.80981 0.940003C4.4198 0.330017 5.07983 0 5.84985 0C6.67981 0 7.38989 0.330017 7.99988 0.940003C8.54993 1.59998 8.82983 2.38 8.82983 3.32001C8.82983 4.26001 8.5498 5.03003 7.94983 5.64001C7.33984 6.25 6.61987 6.58002 5.7998 6.58002L5.78992 6.58002Z" transform="translate(1207.64 640.92004)" id="7" fill="#FFFFFF" fill-rule="evenodd" stroke="none" />
        <path d="M0.369873 28.52L0.369873 26.86C1.52991 26.86 2.29993 26.58 2.74988 25.98C3.18982 25.4301 3.46985 24.65 3.5199 23.6C3.57996 22.61 3.62988 21.45 3.62988 20.1201L3.68994 7.53003C3.68994 6.92004 3.68994 6.37006 3.75 5.76001C3.75 5.15002 3.81006 4.54004 3.92004 3.94C3.26001 4 2.6001 4 1.98999 4.04999C1.32996 4.10998 0.670044 4.10998 0 4.15997L0 1.83997C1.59998 1.83997 2.87 1.77997 3.69995 1.61999C4.52991 1.45001 5.13989 1.28998 5.5199 1.07001C5.90991 0.850037 6.23987 0.630005 6.50989 0.350037L8.10986 0.350037C8.16992 0.630066 8.16992 0.900024 8.21985 1.23004C8.21985 1.56006 8.21985 1.95001 8.27991 2.33002C8.33997 2.72003 8.33997 3.21002 8.33997 3.71002C9.16992 2.99005 10.0499 2.38 11.0499 1.83002C11.9899 1.28003 13.0399 0.840027 14.1399 0.5C15.1899 0.169983 16.2899 0 17.3398 0C20.5398 0 22.8599 0.98999 24.3499 2.97998C25.8398 5.01996 26.5598 8.10998 26.5598 12.37L26.5598 22.64C26.5598 23.36 26.5598 24.02 26.5598 24.57C26.4998 25.18 26.4498 25.78 26.3398 26.39C26.9498 26.33 27.4999 26.33 28.1099 26.28C28.6599 26.28 29.2098 26.28 29.8198 26.22L29.8198 28.48L18.5598 28.48L18.5598 26.8201C19.7199 26.8201 20.4899 26.54 20.9298 25.9401C21.3698 25.3901 21.6498 24.61 21.6998 23.5601C21.7599 22.5701 21.8098 21.41 21.8098 20.0801L21.8098 12.3501C21.7498 9.20007 21.2598 6.77008 20.2598 5.1701C19.2097 3.57013 17.6097 2.74011 15.4597 2.80011C14.1298 2.86011 12.8698 3.19012 11.5997 3.8501C10.3297 4.51007 9.22974 5.34009 8.39978 6.39008C8.45984 6.6701 8.45984 7.00006 8.45984 7.38007C8.45984 7.77008 8.45984 8.15009 8.45984 8.54004L8.39978 22.6201C8.39978 23.34 8.39978 24.0001 8.39978 24.55C8.33972 25.16 8.2898 25.7601 8.17981 26.3701C8.78979 26.3101 9.33984 26.3101 9.94983 26.2601C10.4999 26.2601 11.0498 26.2601 11.6598 26.2001L11.6598 28.4601L0.39978 28.4601L0.369873 28.52Z" transform="translate(1223.2101 652.60004)" id="8" fill="#FFFFFF" fill-rule="evenodd" stroke="none" />
        <path d="M13.8101 46.75C10.5 46.75 7.8501 46.36 5.80005 45.65C3.76001 44.9301 2.32007 43.9901 1.38 42.83C0.440063 41.67 0 40.51 0 39.3C0 38.14 0.280029 37.15 0.829956 36.32C1.32996 35.44 1.98999 34.66 2.81995 34.06C3.58997 33.45 4.37 32.96 5.07996 32.68C3.91992 32.29 2.97998 31.74 2.31995 31.02C1.59998 30.36 1.2699 29.47 1.2699 28.31C1.2699 27.04 1.7699 25.83 2.81995 24.67C3.87 23.57 5.18994 22.9 6.78992 22.63C5.07996 21.8 3.74988 20.7 2.75989 19.26C1.70984 17.82 1.20984 16.17 1.20984 14.24C1.20984 12.03 1.75989 10.1 2.9198 8.44C4.07983 6.84003 5.50977 5.57001 7.33984 4.63C9.10986 3.75 10.9298 3.29999 12.8599 3.29999C14.0698 3.29999 15.2899 3.46997 16.4999 3.79999C17.7098 4.19 18.8198 4.67999 19.8699 5.34998C20.2599 4.29999 20.7499 3.41998 21.4698 2.58997C22.1299 1.75995 22.8999 1.14996 23.7898 0.659973C24.6698 0.219971 25.6097 0 26.5498 0C27.4897 0 28.2598 0.219971 28.7598 0.719971C29.2598 1.21997 29.4797 1.93994 29.4797 2.75995C29.4797 3.03998 29.4197 3.30994 29.2598 3.69995C29.0897 4.08997 28.8698 4.35992 28.5398 4.63995C28.1498 4.91998 27.7098 5.02997 27.0999 5.02997C26.4899 5.02997 25.9398 4.85999 25.5498 4.47998C25.1598 4.08997 24.8898 3.64996 24.7798 3.09998C23.8398 3.26996 23.1298 3.64996 22.6298 4.37C22.1298 5.08997 21.7498 5.91998 21.5797 6.73999C22.4597 7.57001 23.1797 8.51001 23.7297 9.66998C24.2297 10.83 24.4998 12.05 24.4998 13.31C24.4998 15.35 23.9497 17.23 22.8998 18.83C21.7998 20.43 20.3597 21.7 18.5897 22.59C16.8197 23.53 14.8898 23.97 12.8497 23.97C12.1298 23.97 11.5198 23.91 11.0298 23.8C10.5298 23.7401 9.86975 23.6901 9.14978 23.6901C7.76978 23.6901 6.6698 24.0201 5.83972 24.6801C5.00977 25.34 4.67969 26.1201 4.95972 27.05C5.23975 27.9301 6.17969 28.4901 7.66968 28.71C9.15967 28.9901 11.1997 29.15 13.7396 29.26C16.5596 29.37 18.9796 29.7 21.0297 30.25C23.0697 30.8 24.6196 31.63 25.7196 32.85C26.7697 34.0099 27.3196 35.55 27.3196 37.54C27.3196 39.03 26.9296 40.36 26.1595 41.52C25.3296 42.6799 24.2795 43.6199 23.0095 44.39C21.6896 45.16 20.2495 45.77 18.6495 46.16C17.0496 46.55 15.3895 46.77 13.7896 46.77L13.8101 46.75ZM13.75 44.6C16.9 44.6 19.38 43.99 21.15 42.83C22.92 41.67 23.8 40.29 23.8 38.6899C23.8 37.3099 23.3601 36.3199 22.42 35.5999C21.4801 34.8799 20.27 34.3899 18.67 34.1099C17.0701 33.8299 15.25 33.6699 13.2001 33.6099C12.2101 33.5499 11.2101 33.5499 10.27 33.4999C9.33008 33.4399 8.39001 33.33 7.51001 33.1699C6.52002 33.8299 5.73999 34.6599 5.19006 35.5999C4.64001 36.5399 4.36011 37.5899 4.36011 38.6399C4.36011 40.4599 5.24011 41.8999 6.95007 42.9999C8.66003 44.0499 10.92 44.5999 13.7401 44.5999L13.75 44.6ZM13.03 21.96C14.41 21.96 15.51 21.6299 16.4501 20.97C17.3301 20.31 18.0001 19.42 18.4901 18.2599C18.9301 17.1 19.1501 15.83 19.1501 14.4C19.1501 12.8 18.9302 11.2499 18.4302 9.86993C17.9302 8.48993 17.2701 7.32996 16.3302 6.49994C15.3903 5.66992 14.1802 5.22992 12.7402 5.22992C10.7502 5.22992 9.2002 5.94989 8.16028 7.43994C7.0603 8.92993 6.50024 10.8099 6.50024 13.02C6.50024 14.79 6.78027 16.33 7.27026 17.66C7.77026 19.04 8.54028 20.09 9.53027 20.81C10.4702 21.58 11.6302 21.97 13.0103 21.97L13.03 21.96Z" transform="translate(1256.59 649.3301)" id="9" fill="#FFFFFF" fill-rule="evenodd" stroke="none" />
        <path d="M0.329956 42.58L0.329956 40.92C1.48999 40.92 2.26001 40.64 2.69995 40.09C3.13989 39.48 3.41992 38.71 3.46997 37.71C3.53003 36.66 3.57996 35.4999 3.57996 34.1799L3.68994 7.50995C3.68994 6.89996 3.68994 6.34998 3.75 5.73993C3.75 5.12994 3.81006 4.51996 3.92004 3.91992C3.26001 3.97992 2.59009 3.97992 1.98999 4.02991C1.32996 4.0899 0.660034 4.0899 0 4.13989L0 1.81989C1.59998 1.81989 2.87 1.75989 3.69995 1.59991C4.52991 1.42993 5.13989 1.2699 5.5199 1.04993C5.90991 0.829956 6.17993 0.609924 6.45984 0.329956L8.11987 0.329956C8.17993 0.719971 8.17993 1.09998 8.22986 1.59998C8.28992 2.09998 8.28992 2.69995 8.33984 3.31C9.43982 2.32001 10.7699 1.48999 12.3098 0.880005C13.7998 0.27002 15.3499 0 16.8898 0C19.0398 0 21.0298 0.549988 22.8497 1.65997C24.6697 2.75995 26.1598 4.31 27.3197 6.34998C28.4797 8.38995 29.0297 10.88 29.0297 13.69C29.0297 16.84 28.3696 19.54 27.0996 21.92C25.7697 24.3 24.0596 26.12 21.9097 27.39C19.7596 28.72 17.4397 29.3799 14.9497 29.3799C13.6797 29.3799 12.4597 29.21 11.4197 28.9399C10.3197 28.6099 9.26965 28.1699 8.32971 27.5599L8.32971 36.7299C8.32971 37.4499 8.32971 38.1099 8.32971 38.7199C8.26965 39.2699 8.21973 39.8799 8.10974 40.4899C8.71973 40.4299 9.26978 40.4299 9.87976 40.4299C10.4298 40.3699 10.9797 40.3699 11.5897 40.3199L11.5897 42.58L0.329712 42.58L0.329956 42.58ZM14.85 27.1799C16.62 27.1799 18.16 26.6299 19.4299 25.52C20.7 24.47 21.6399 22.98 22.36 21.05C23.02 19.17 23.35 17.02 23.35 14.59C23.35 12.6 23.0699 10.67 22.52 8.84998C21.91 7.02997 21.03 5.58997 19.8101 4.42999C18.54 3.27002 16.9401 2.71997 14.9 2.71997C13.63 2.71997 12.47 3 11.3101 3.59998C10.15 4.20996 9.16003 4.97998 8.38 5.81C8.38 5.97998 8.38 6.14001 8.44006 6.41998C8.44006 6.70001 8.44006 7.19 8.44006 7.85998C8.44006 8.57996 8.44006 9.57001 8.44006 10.9C8.44006 12.28 8.44006 14.1 8.44006 16.3699C8.38 18.6299 8.38 21.5599 8.38 25.0399C9.31995 25.7599 10.3101 26.2599 11.42 26.6399C12.4701 27.0299 13.63 27.1899 14.8401 27.1899L14.85 27.1799Z" transform="translate(1301.3201 652.6201)" id="10" fill="#FFFFFF" fill-rule="evenodd" stroke="none" />
        <path d="M13.86 29.37C11.27 29.37 8.94995 28.76 6.84998 27.55C4.75 26.39 3.09998 24.74 1.88 22.58C0.609985 20.48 0 18.05 0 15.35C0 12.42 0.609985 9.83002 1.81995 7.51001C3.03992 5.19 4.68994 3.37 6.78992 1.98999C8.88989 0.659973 11.2599 0 13.8599 0C16.4598 0 18.7699 0.609985 20.8699 1.82001C22.9698 3.09003 24.6299 4.75 25.8899 6.84003C27.1599 8.94 27.7699 11.31 27.7699 14.02C27.7699 16.83 27.1599 19.43 25.95 21.75C24.6799 24.12 23.0199 25.95 20.9299 27.33C18.83 28.71 16.46 29.37 13.86 29.37L13.86 29.37ZM14.2999 27.16C16.23 27.16 17.7799 26.61 18.9399 25.5C20.1 24.4 20.9299 22.96 21.4299 21.19C21.9299 19.42 22.1499 17.55 22.1499 15.61C22.1499 13.95 21.9799 12.3 21.71 10.7C21.38 9.10004 20.88 7.66003 20.22 6.34003C19.5599 5.07001 18.73 4.02002 17.6799 3.25C16.6299 2.47998 15.36 2.09003 13.8699 2.09003C11.9398 2.09003 10.3899 2.64001 9.17993 3.75C7.95996 4.84998 7.07996 6.28998 6.52991 8.06C5.91992 9.83002 5.6499 11.7 5.6499 13.75C5.6499 16.01 5.97986 18.17 6.58984 20.21C7.19983 22.25 8.18982 23.96 9.45984 25.23C10.7299 26.5001 12.3899 27.16 14.3198 27.16L14.2999 27.16Z" transform="translate(1334.9401 652.6401)" id="11" fill="#FFFFFF" fill-rule="evenodd" stroke="none" />
        <path d="M0.5 40.03C1.66003 40.03 2.43005 39.7499 2.87 39.15C3.30994 38.6 3.58997 37.8199 3.64001 36.77C3.70007 35.78 3.75 34.6199 3.75 33.29L3.75 7.17999C3.75 6.57001 3.75 6.02002 3.81006 5.46997C3.81006 4.96997 3.87012 4.31 3.92004 3.58997C3.26001 3.64996 2.59009 3.64996 1.98999 3.69995C1.32996 3.75995 0.660034 3.75995 0 3.80994L0 1.48993C1.59998 1.48993 2.87 1.42993 3.81006 1.26996C4.69006 1.09998 5.36011 0.939941 5.8501 0.719971C6.29004 0.5 6.62012 0.279968 6.90015 0L8.50012 0L8.56018 35.83C8.56018 36.55 8.56018 37.21 8.50012 37.76C8.44006 38.37 8.39014 38.97 8.28015 39.58C8.89014 39.52 9.44019 39.52 10.0502 39.47C10.6002 39.47 11.1501 39.47 11.7601 39.41L11.7601 41.67L0.500122 41.67L0.500122 40.0101L0.5 40.03Z" transform="translate(1366.35 639.44006)" id="12" fill="#FFFFFF" fill-rule="evenodd" stroke="none" />
        <path d="M0.429932 38.55C1.58997 38.55 2.35999 38.27 2.80994 37.67C3.24988 37.12 3.52991 36.34 3.57996 35.29C3.64001 34.3 3.68994 33.14 3.68994 31.81L3.68994 19.22C3.68994 18.61 3.68994 18.06 3.75 17.5099C3.81006 17.0099 3.85999 16.35 3.92004 15.6299C3.26001 15.6899 2.6001 15.6899 1.98999 15.7399C1.32996 15.7999 0.670044 15.7999 0 15.8499L0 13.5299C1.59998 13.5299 2.87 13.4699 3.75 13.3099C4.63 13.14 5.30005 12.9799 5.79004 12.7599C6.22998 12.54 6.56006 12.3199 6.84009 12.04L8.44006 12.04L8.44006 34.35C8.44006 35.0699 8.44006 35.73 8.44006 36.28C8.38 36.89 8.33008 37.49 8.22009 38.1C8.83008 38.04 9.38013 38.04 9.99011 37.99C10.5402 37.99 11.0901 37.99 11.7001 37.93L11.7001 40.19L0.440063 40.19L0.440063 38.53L0.429932 38.55ZM5.78992 6.58002C5.0199 6.58002 4.34998 6.25 3.74988 5.64001C3.13989 5.03003 2.86987 4.26001 2.86987 3.32001C2.86987 2.38 3.19983 1.60999 3.80981 0.940003C4.4198 0.330017 5.07983 0 5.84985 0C6.67981 0 7.38989 0.330017 7.99988 0.940003C8.54993 1.59998 8.82983 2.38 8.82983 3.32001C8.82983 4.26001 8.5498 5.03003 7.94983 5.64001C7.33984 6.25 6.61987 6.58002 5.7998 6.58002L5.78992 6.58002Z" transform="translate(1381.9901 640.92004)" id="13" fill="#FFFFFF" fill-rule="evenodd" stroke="none" />
        <path d="M13.64 29.37C11.16 29.37 8.89001 28.82 6.84998 27.66C4.75 26.56 3.09998 24.95 1.88 22.8C0.609985 20.7 0 18.16 0 15.18C0 13.25 0.329956 11.43 1.05005 9.59998C1.77002 7.77997 2.76001 6.17999 4.03003 4.69C5.30005 3.25 6.79004 2.09998 8.56006 1.27002C10.3301 0.440002 12.26 0 14.41 0C16.4501 0 18.27 0.330017 19.8201 0.940003C21.3101 1.54999 22.52 2.38001 23.3501 3.41998C24.1801 4.46997 24.6201 5.57001 24.6201 6.78998C24.6201 7.62 24.4001 8.27997 23.9601 8.82996C23.5201 9.43994 22.8601 9.70996 22.03 9.70996C21.0901 9.76996 20.48 9.42993 20.1 8.82996C19.71 8.21997 19.49 7.72998 19.49 7.22998C19.49 6.83997 19.55 6.45996 19.66 6.07001C19.77 5.67999 19.99 5.35004 20.3201 5.02002C20.04 4.14001 19.4901 3.48004 18.77 3.03003C18.05 2.64001 17.28 2.37006 16.51 2.20001C15.6801 2.09003 15.02 2.03003 14.52 2.03003C12.03 2.03003 9.94006 3.02002 8.22998 5.01001C6.52002 7.04999 5.64002 9.97998 5.64002 13.79C5.64002 16.28 6.03003 18.4301 6.84998 20.36C7.62 22.29 8.72998 23.78 10.16 24.83C11.6 25.93 13.25 26.49 15.13 26.49C16.84 26.49 18.5 26.05 20.1 25.11C21.7 24.17 22.9199 23.07 23.7999 21.74L25.2399 22.84C24.2999 24.39 23.1399 25.65 21.8198 26.59C20.4398 27.53 19.0598 28.2499 17.6798 28.6899C16.2399 29.1299 14.9198 29.3499 13.6498 29.3499L13.64 29.37Z" transform="translate(1397.77 652.6401)" id="14" fill="#FFFFFF" fill-rule="evenodd" stroke="none" />
        <path d="M6.47034 42.55C5.3103 42.55 4.37036 42.27 3.54028 41.72C2.71033 41.17 2.32031 40.34 2.32031 39.1801C2.32031 38.5201 2.54028 37.91 2.98035 37.36C3.42029 36.8101 3.97034 36.53 4.69031 36.53C5.57031 36.47 6.1803 36.75 6.51025 37.36C6.79028 37.97 6.9502 38.46 6.9502 38.91C6.9502 39.02 6.9502 39.13 6.9502 39.3C6.9502 39.41 6.9502 39.52 6.89014 39.6901C7.00012 39.7501 7.22009 39.8 7.50012 39.8C7.94006 39.8 8.44006 39.6301 8.94006 39.2501C9.44006 38.86 9.93005 38.3701 10.3201 37.6501C10.8201 36.8201 11.3701 35.6101 12.03 34.0101C12.64 32.4101 13.36 30.48 14.1801 28.2101L5.57007 9.77008C4.63013 7.7301 3.91003 6.07007 3.53003 4.86011C3.09009 3.64014 2.81006 2.76013 2.65002 2.15009L0 2.26007L0 6.10352e-05L11.4301 6.10352e-05L11.4301 1.66003L11.2101 1.66003C9.66004 1.77002 8.83008 2.32001 8.67004 3.37006C8.5 4.42004 8.95007 6.02008 9.94006 8.17004L16.4 22.03C17.23 19.65 18.0601 17.34 18.8301 15.02C19.6001 12.76 20.3801 10.44 21.15 8.17004C21.4301 7.34003 21.76 6.51007 22.09 5.63007C22.37 4.80005 22.7 4.03009 23.0299 3.31006C23.3099 2.65009 23.58 2.21008 23.8599 2.04004L20.0498 2.26001L20.0498 0L28.7198 0L28.7198 1.65997C27.3398 2.15997 26.3398 3.03998 25.6798 4.19995C24.9598 5.41992 24.2998 6.95996 23.5798 8.83997L16.6798 28.11C15.5798 31.2 14.5798 33.85 13.6398 36.01C12.6998 38.16 11.7097 39.76 10.5997 40.92C9.49976 42.02 8.11975 42.58 6.45972 42.58L6.47034 42.55Z" transform="translate(1424.8197 653.53)" id="15" fill="#FFFFFF" fill-rule="evenodd" stroke="none" />
        <path d="M11.64 36.2C10.8101 36.2 9.93005 36.09 9.05005 35.87C8.17004 35.59 7.34009 35.15 6.62 34.43C5.84998 33.71 5.23999 32.72 4.80005 31.34C4.36011 30.0099 4.14001 28.2499 4.14001 26.04L4.25 10.03L0 10.09L0 7.71997C0.939941 7.65997 1.93005 7.32996 2.93005 6.62C3.92004 5.96002 4.81006 5.02002 5.64002 3.85999C6.41003 2.70001 6.96997 1.36999 7.23999 0L9.12 0L9.12 7.72998L18.39 7.72998L18.39 9.88L9.12 9.98999L9.01001 25.34C9.01001 26.9999 9.18005 28.3799 9.44995 29.54C9.72998 30.6999 10.1699 31.58 10.7799 32.19C11.3899 32.8 12.2198 33.07 13.21 33.07C14.26 33.07 15.2 32.79 16.14 32.19C17.02 31.58 17.8 30.81 18.51 29.76L20 30.97C19.17 32.19 18.4 33.1201 17.63 33.84C16.8 34.56 16.03 35.06 15.3101 35.44C14.5901 35.77 13.8701 35.99 13.27 36.1C12.66 36.16 12.11 36.21 11.67 36.21L11.64 36.2Z" transform="translate(1469.44 645.81006)" id="16" fill="#FFFFFF" fill-rule="evenodd" stroke="none" />
        <path d="M13.86 29.37C11.27 29.37 8.94995 28.76 6.84998 27.55C4.75 26.39 3.09998 24.74 1.88 22.58C0.609985 20.48 0 18.05 0 15.35C0 12.42 0.609985 9.83002 1.81995 7.51001C3.03992 5.19 4.68994 3.37 6.78992 1.98999C8.88989 0.659973 11.2599 0 13.8599 0C16.4598 0 18.7699 0.609985 20.8699 1.82001C22.9698 3.09003 24.6299 4.75 25.8899 6.84003C27.1599 8.94 27.7699 11.31 27.7699 14.02C27.7699 16.83 27.1599 19.43 25.95 21.75C24.6799 24.12 23.0199 25.95 20.9299 27.33C18.83 28.71 16.46 29.37 13.86 29.37L13.86 29.37ZM14.2999 27.16C16.23 27.16 17.7799 26.61 18.9399 25.5C20.1 24.4 20.9299 22.96 21.4299 21.19C21.9299 19.42 22.1499 17.55 22.1499 15.61C22.1499 13.95 21.9799 12.3 21.71 10.7C21.38 9.10004 20.88 7.66003 20.22 6.34003C19.5599 5.07001 18.73 4.02002 17.6799 3.25C16.6299 2.47998 15.36 2.09003 13.8699 2.09003C11.9398 2.09003 10.3899 2.64001 9.17993 3.75C7.95996 4.84998 7.07996 6.28998 6.52991 8.06C5.91992 9.83002 5.6499 11.7 5.6499 13.75C5.6499 16.01 5.97986 18.17 6.58984 20.21C7.19983 22.25 8.18982 23.96 9.45984 25.23C10.7299 26.5001 12.3899 27.16 14.3198 27.16L14.2999 27.16Z" transform="translate(1491.9 652.6401)" id="17" fill="#FFFFFF" fill-rule="evenodd" stroke="none" />
        <path d="M0.329956 42.58L0.329956 40.92C1.48999 40.92 2.26001 40.64 2.69995 40.09C3.13989 39.48 3.41992 38.71 3.46997 37.71C3.53003 36.66 3.57996 35.4999 3.57996 34.1799L3.68994 7.50995C3.68994 6.89996 3.68994 6.34998 3.75 5.73993C3.75 5.12994 3.81006 4.51996 3.92004 3.91992C3.26001 3.97992 2.59009 3.97992 1.98999 4.02991C1.32996 4.0899 0.660034 4.0899 0 4.13989L0 1.81989C1.59998 1.81989 2.87 1.75989 3.69995 1.59991C4.52991 1.42993 5.13989 1.2699 5.5199 1.04993C5.90991 0.829956 6.17993 0.609924 6.45984 0.329956L8.11987 0.329956C8.17993 0.719971 8.17993 1.09998 8.22986 1.59998C8.28992 2.09998 8.28992 2.69995 8.33984 3.31C9.43982 2.32001 10.7699 1.48999 12.3098 0.880005C13.7998 0.27002 15.3499 0 16.8898 0C19.0398 0 21.0298 0.549988 22.8497 1.65997C24.6697 2.75995 26.1598 4.31 27.3197 6.34998C28.4797 8.38995 29.0297 10.88 29.0297 13.69C29.0297 16.84 28.3696 19.54 27.0996 21.92C25.7697 24.3 24.0596 26.12 21.9097 27.39C19.7596 28.72 17.4397 29.3799 14.9497 29.3799C13.6797 29.3799 12.4597 29.21 11.4197 28.9399C10.3197 28.6099 9.26965 28.1699 8.32971 27.5599L8.32971 36.7299C8.32971 37.4499 8.32971 38.1099 8.32971 38.7199C8.26965 39.2699 8.21973 39.8799 8.10974 40.4899C8.71973 40.4299 9.26978 40.4299 9.87976 40.4299C10.4298 40.3699 10.9797 40.3699 11.5897 40.3199L11.5897 42.58L0.329712 42.58L0.329956 42.58ZM14.85 27.1799C16.62 27.1799 18.16 26.6299 19.4299 25.52C20.7 24.47 21.6399 22.98 22.36 21.05C23.02 19.17 23.35 17.02 23.35 14.59C23.35 12.6 23.0699 10.67 22.52 8.84998C21.91 7.02997 21.03 5.58997 19.8101 4.42999C18.54 3.27002 16.9401 2.71997 14.9 2.71997C13.63 2.71997 12.47 3 11.3101 3.59998C10.15 4.20996 9.16003 4.97998 8.38 5.81C8.38 5.97998 8.38 6.14001 8.44006 6.41998C8.44006 6.70001 8.44006 7.19 8.44006 7.85998C8.44006 8.57996 8.44006 9.57001 8.44006 10.9C8.44006 12.28 8.44006 14.1 8.44006 16.3699C8.38 18.6299 8.38 21.5599 8.38 25.0399C9.31995 25.7599 10.3101 26.2599 11.42 26.6399C12.4701 27.0299 13.63 27.1899 14.8401 27.1899L14.85 27.1799Z" transform="translate(1538.06 652.6201)" id="18" fill="#FFFFFF" fill-rule="evenodd" stroke="none" />
        <path d="M13.48 29.3699C10.9399 29.3699 8.67993 28.76 6.63001 27.5499C4.58997 26.39 2.93005 24.6799 1.77002 22.4699C0.609985 20.3199 0 17.7199 0 14.7399C0 12.1499 0.609985 9.76996 1.77002 7.50995C2.93005 5.24994 4.53003 3.41992 6.63001 2.03998C8.72998 0.659973 11.16 0 13.92 0C15.4701 0 16.9 0.219971 18.28 0.719971C19.61 1.21997 20.76 1.98999 21.8101 2.97998C22.8601 4.02997 23.63 5.29999 24.2401 6.78998C24.8501 8.33997 25.1201 10.16 25.1201 12.2L5.69006 12.53C5.69006 15.34 6.02002 17.77 6.63001 19.87C7.23999 22.02 8.18005 23.62 9.56006 24.78C10.9401 25.9399 12.65 26.55 14.8 26.55C15.9601 26.55 17.12 26.33 18.3301 25.94C19.4901 25.55 20.5901 25 21.6401 24.28C22.6902 23.5601 23.5201 22.79 24.1201 21.96L25.4501 23.06C24.4601 24.61 23.2401 25.82 21.8601 26.76C20.4801 27.7 19.0402 28.36 17.55 28.75C16.0601 29.14 14.7301 29.36 13.4601 29.36L13.48 29.3699ZM5.85999 10.21L19.9399 10.21C19.9399 8.88995 19.7699 7.61993 19.3899 6.34998C18.9999 5.13 18.3398 4.13995 17.4598 3.31C16.5798 2.53998 15.4198 2.15002 13.9799 2.15002C11.8298 2.15002 10.0598 2.76001 8.67981 4.03003C7.24976 5.30005 6.30981 7.40002 5.86975 10.21L5.85999 10.21Z" transform="translate(1571.73 652.64014)" id="19" fill="#FFFFFF" fill-rule="evenodd" stroke="none" />
        <path d="M13.86 29.37C11.27 29.37 8.94995 28.76 6.84998 27.55C4.75 26.39 3.09998 24.74 1.88 22.58C0.609985 20.48 0 18.05 0 15.35C0 12.42 0.609985 9.83002 1.81995 7.51001C3.03992 5.19 4.68994 3.37 6.78992 1.98999C8.88989 0.659973 11.2599 0 13.8599 0C16.4598 0 18.7699 0.609985 20.8699 1.82001C22.9698 3.09003 24.6299 4.75 25.8899 6.84003C27.1599 8.94 27.7699 11.31 27.7699 14.02C27.7699 16.83 27.1599 19.43 25.95 21.75C24.6799 24.12 23.0199 25.95 20.9299 27.33C18.83 28.71 16.46 29.37 13.86 29.37L13.86 29.37ZM14.2999 27.16C16.23 27.16 17.7799 26.61 18.9399 25.5C20.1 24.4 20.9299 22.96 21.4299 21.19C21.9299 19.42 22.1499 17.55 22.1499 15.61C22.1499 13.95 21.9799 12.3 21.71 10.7C21.38 9.10004 20.88 7.66003 20.22 6.34003C19.5599 5.07001 18.73 4.02002 17.6799 3.25C16.6299 2.47998 15.36 2.09003 13.8699 2.09003C11.9398 2.09003 10.3899 2.64001 9.17993 3.75C7.95996 4.84998 7.07996 6.28998 6.52991 8.06C5.91992 9.83002 5.6499 11.7 5.6499 13.75C5.6499 16.01 5.97986 18.17 6.58984 20.21C7.19983 22.25 8.18982 23.96 9.45984 25.23C10.7299 26.5001 12.3899 27.16 14.3198 27.16L14.2999 27.16Z" transform="translate(1601.33 652.6401)" id="20" fill="#FFFFFF" fill-rule="evenodd" stroke="none" />
        <path d="M0.329956 42.58L0.329956 40.92C1.48999 40.92 2.26001 40.64 2.69995 40.09C3.13989 39.48 3.41992 38.71 3.46997 37.71C3.53003 36.66 3.57996 35.4999 3.57996 34.1799L3.68994 7.50995C3.68994 6.89996 3.68994 6.34998 3.75 5.73993C3.75 5.12994 3.81006 4.51996 3.92004 3.91992C3.26001 3.97992 2.59009 3.97992 1.98999 4.02991C1.32996 4.0899 0.660034 4.0899 0 4.13989L0 1.81989C1.59998 1.81989 2.87 1.75989 3.69995 1.59991C4.52991 1.42993 5.13989 1.2699 5.5199 1.04993C5.90991 0.829956 6.17993 0.609924 6.45984 0.329956L8.11987 0.329956C8.17993 0.719971 8.17993 1.09998 8.22986 1.59998C8.28992 2.09998 8.28992 2.69995 8.33984 3.31C9.43982 2.32001 10.7699 1.48999 12.3098 0.880005C13.7998 0.27002 15.3499 0 16.8898 0C19.0398 0 21.0298 0.549988 22.8497 1.65997C24.6697 2.75995 26.1598 4.31 27.3197 6.34998C28.4797 8.38995 29.0297 10.88 29.0297 13.69C29.0297 16.84 28.3696 19.54 27.0996 21.92C25.7697 24.3 24.0596 26.12 21.9097 27.39C19.7596 28.72 17.4397 29.3799 14.9497 29.3799C13.6797 29.3799 12.4597 29.21 11.4197 28.9399C10.3197 28.6099 9.26965 28.1699 8.32971 27.5599L8.32971 36.7299C8.32971 37.4499 8.32971 38.1099 8.32971 38.7199C8.26965 39.2699 8.21973 39.8799 8.10974 40.4899C8.71973 40.4299 9.26978 40.4299 9.87976 40.4299C10.4298 40.3699 10.9797 40.3699 11.5897 40.3199L11.5897 42.58L0.329712 42.58L0.329956 42.58ZM14.85 27.1799C16.62 27.1799 18.16 26.6299 19.4299 25.52C20.7 24.47 21.6399 22.98 22.36 21.05C23.02 19.17 23.35 17.02 23.35 14.59C23.35 12.6 23.0699 10.67 22.52 8.84998C21.91 7.02997 21.03 5.58997 19.8101 4.42999C18.54 3.27002 16.9401 2.71997 14.9 2.71997C13.63 2.71997 12.47 3 11.3101 3.59998C10.15 4.20996 9.16003 4.97998 8.38 5.81C8.38 5.97998 8.38 6.14001 8.44006 6.41998C8.44006 6.70001 8.44006 7.19 8.44006 7.85998C8.44006 8.57996 8.44006 9.57001 8.44006 10.9C8.44006 12.28 8.44006 14.1 8.44006 16.3699C8.38 18.6299 8.38 21.5599 8.38 25.0399C9.31995 25.7599 10.3101 26.2599 11.42 26.6399C12.4701 27.0299 13.63 27.1899 14.8401 27.1899L14.85 27.1799Z" transform="translate(1632.9701 652.6201)" id="21" fill="#FFFFFF" fill-rule="evenodd" stroke="none" />
        <path d="M0.5 40.03C1.66003 40.03 2.43005 39.7499 2.87 39.15C3.30994 38.6 3.58997 37.8199 3.64001 36.77C3.70007 35.78 3.75 34.6199 3.75 33.29L3.75 7.17999C3.75 6.57001 3.75 6.02002 3.81006 5.46997C3.81006 4.96997 3.87012 4.31 3.92004 3.58997C3.26001 3.64996 2.59009 3.64996 1.98999 3.69995C1.32996 3.75995 0.660034 3.75995 0 3.80994L0 1.48993C1.59998 1.48993 2.87 1.42993 3.81006 1.26996C4.69006 1.09998 5.36011 0.939941 5.8501 0.719971C6.29004 0.5 6.62012 0.279968 6.90015 0L8.50012 0L8.56018 35.83C8.56018 36.55 8.56018 37.21 8.50012 37.76C8.44006 38.37 8.39014 38.97 8.28015 39.58C8.89014 39.52 9.44019 39.52 10.0502 39.47C10.6002 39.47 11.1501 39.47 11.7601 39.41L11.7601 41.67L0.500122 41.67L0.500122 40.0101L0.5 40.03Z" transform="translate(1665.71 639.44006)" id="22" fill="#FFFFFF" fill-rule="evenodd" stroke="none" />
        <path d="M13.48 29.3699C10.9399 29.3699 8.67993 28.76 6.63001 27.5499C4.58997 26.39 2.93005 24.6799 1.77002 22.4699C0.609985 20.3199 0 17.7199 0 14.7399C0 12.1499 0.609985 9.76996 1.77002 7.50995C2.93005 5.24994 4.53003 3.41992 6.63001 2.03998C8.72998 0.659973 11.16 0 13.92 0C15.4701 0 16.9 0.219971 18.28 0.719971C19.61 1.21997 20.76 1.98999 21.8101 2.97998C22.8601 4.02997 23.63 5.29999 24.2401 6.78998C24.8501 8.33997 25.1201 10.16 25.1201 12.2L5.69006 12.53C5.69006 15.34 6.02002 17.77 6.63001 19.87C7.23999 22.02 8.18005 23.62 9.56006 24.78C10.9401 25.9399 12.65 26.55 14.8 26.55C15.9601 26.55 17.12 26.33 18.3301 25.94C19.4901 25.55 20.5901 25 21.6401 24.28C22.6902 23.5601 23.5201 22.79 24.1201 21.96L25.4501 23.06C24.4601 24.61 23.2401 25.82 21.8601 26.76C20.4801 27.7 19.0402 28.36 17.55 28.75C16.0601 29.14 14.7301 29.36 13.4601 29.36L13.48 29.3699ZM5.85999 10.21L19.9399 10.21C19.9399 8.88995 19.7699 7.61993 19.3899 6.34998C18.9999 5.13 18.3398 4.13995 17.4598 3.31C16.5798 2.53998 15.4198 2.15002 13.9799 2.15002C11.8298 2.15002 10.0598 2.76001 8.67981 4.03003C7.24976 5.30005 6.30981 7.40002 5.86975 10.21L5.85999 10.21Z" transform="translate(1681.66 652.64014)" id="23" fill="#FFFFFF" fill-rule="evenodd" stroke="none" />
      </g>
    </g>
  </g>
</svg>