<?xml version="1.0" encoding="UTF-8"?>
<!DOCTYPE svg PUBLIC "-//W3C//DTD SVG 1.1//EN" "http://www.w3.org/Graphics/SVG/1.1/DTD/svg11.dtd">
<!-- Creator: CorelDRAW -->
<svg xmlns="http://www.w3.org/2000/svg" xml:space="preserve" width="4.11857in" height="1.78173in" version="1.1" style="shape-rendering:geometricPrecision; text-rendering:geometricPrecision; image-rendering:optimizeQuality; fill-rule:evenodd; clip-rule:evenodd"
viewBox="0 0 1748.51 756.42"
 xmlns:xlink="http://www.w3.org/1999/xlink"
 xmlns:xodm="http://www.corel.com/coreldraw/odm/2003">
 <defs>
  <style type="text/css">
   <![CDATA[
    .fil1 {fill:#161722}
    .fil3 {fill:black;fill-rule:nonzero}
    .fil0 {fill:#161722;fill-rule:nonzero}
    .fil2 {fill:white;fill-rule:nonzero}
   ]]>
  </style>
 </defs>
 <g id="Layer_x0020_1">
  <metadata id="CorelCorpID_0Corel-Layer"/>
  <path class="fil0" d="M963.04 265.98l0 -134.4c1.95,-0.39 4.29,-0.39 7.01,-0.78 2.73,-0.39 5.46,-0.39 8.18,-0.39 22.6,0 38.18,5.84 46.75,17.92 8.57,12.08 12.85,29.22 12.85,51.81 0,23.76 -5.06,40.9 -14.8,50.64 -9.74,10.13 -25.71,15.19 -47.92,15.19l-12.08 0zm0 132.07l0 -126.61 15.97 0c20.65,0 38.96,-1.95 54.15,-5.84 15.19,-3.89 28.05,-9.35 38.18,-15.97 10.13,-6.62 17.53,-14.41 22.6,-23.37 5.06,-8.96 7.4,-18.31 7.4,-28.44 0,-15.19 -3.9,-27.27 -11.3,-37.01 -7.79,-9.35 -17.53,-16.75 -28.83,-22.21 -11.3,-5.06 -23.76,-8.96 -37.4,-10.91 -13.64,-1.95 -26.1,-2.73 -37.79,-2.73 -13.25,0 -26.49,0 -39.74,0.39 -13.24,0.39 -26.49,0.78 -39.74,0.78l-35.84 0 0 5.45 35.84 0 0 266.47 -35.84 0 0 5.45 128.17 0 0 -5.45 -35.84 0z"/>
  <path class="fil0" d="M1146.24 403.51c-10.13,0 -17.92,-2.34 -23.76,-7.4 -5.84,-4.67 -9.74,-10.91 -12.47,-18.7 -2.73,-7.79 -4.67,-16.75 -5.06,-26.88 -0.78,-10.13 -1.17,-20.26 -1.17,-30.78 0,-10.52 0.39,-20.65 1.17,-30.78 0.39,-9.74 2.34,-18.7 5.06,-26.49 2.73,-7.79 6.62,-14.02 12.47,-19.09 5.84,-4.67 13.63,-7.01 23.76,-7.01 10.13,0 17.92,2.34 23.76,7.01 5.84,5.06 10.13,11.3 12.86,19.09 2.73,7.79 4.29,16.75 5.06,26.49 0.39,10.13 0.78,20.26 0.78,30.78 0,10.52 -0.39,20.65 -0.78,30.78 -0.78,10.13 -2.34,19.09 -5.06,26.88 -2.73,7.79 -7.01,14.02 -12.86,18.7 -5.84,5.07 -13.63,7.4 -23.76,7.4zm0 -172.58c-13.64,0 -26.1,2.34 -37.4,7.01 -11.69,5.06 -21.82,11.3 -30.39,19.48 -8.57,8.18 -15.19,17.53 -19.87,28.05 -5.06,10.91 -7.4,22.21 -7.4,34.28 0,12.08 2.34,23.76 7.4,34.28 4.67,10.91 11.3,20.26 19.87,28.44 8.57,8.18 18.7,14.41 30.39,19.09 11.3,4.67 23.76,7.01 37.4,7.01 13.63,0 26.1,-2.34 37.79,-7.01 11.3,-4.67 21.43,-10.91 30,-19.09 8.57,-8.18 15.19,-17.53 20.26,-28.44 4.67,-10.52 7.01,-22.21 7.01,-34.28 0,-12.08 -2.34,-23.37 -7.01,-34.28 -5.06,-10.52 -11.69,-19.87 -20.26,-28.05 -8.57,-8.18 -18.7,-14.41 -30,-19.48 -11.69,-4.67 -24.15,-7.01 -37.79,-7.01z"/>
  <polygon class="fil0" points="1225.46,122.62 1225.46,128.07 1251.56,128.07 1251.56,398.05 1225.46,398.05 1225.46,403.51 1325.19,403.51 1325.19,398.05 1299.09,398.05 1299.09,122.62 "/>
  <path class="fil0" d="M1333.04 152.62c0,7.4 2.73,14.02 8.18,19.48 5.45,5.45 12.08,8.18 19.48,8.18 7.4,0 14.02,-2.73 19.48,-8.18 5.45,-5.45 8.18,-12.08 8.18,-19.48 0,-7.4 -2.73,-14.02 -8.18,-19.48 -5.45,-5.45 -12.08,-8.18 -19.48,-8.18 -7.4,0 -14.02,2.73 -19.48,8.18 -5.45,5.45 -8.18,12.08 -8.18,19.48zm-22.21 83.76l0 5.45 26.1 0 0 156.22 -26.1 0 0 5.45 99.73 0 0 -5.45 -26.1 0 0 -161.68 -73.63 0z"/>
  <path class="fil0" d="M1401.59 319.75c0,13.24 1.95,24.54 5.84,34.28 3.51,9.74 8.57,17.53 14.8,24.15 5.84,6.62 12.47,12.08 19.87,15.97 7.4,3.9 14.41,7.01 21.82,8.96 7.01,2.34 13.64,3.9 19.87,4.67 5.84,0.39 10.52,0.78 14.02,0.78 12.47,0 22.99,-1.56 31.17,-5.06 8.18,-3.51 14.8,-7.4 19.87,-12.47 5.07,-4.67 9.35,-9.74 12.08,-15.58 2.73,-5.45 4.67,-10.52 5.84,-15.19l-5.45 -1.95c-0.39,2.34 -1.95,5.84 -3.9,10.91 -2.34,5.06 -5.84,10.13 -10.13,15.19 -4.29,5.06 -10.13,9.74 -17.53,13.25 -7.4,3.9 -16.36,5.84 -26.88,5.84 -11.3,0 -19.87,-2.73 -26.49,-7.79 -6.62,-5.06 -11.3,-12.08 -14.8,-20.26 -3.5,-8.18 -5.45,-17.53 -6.23,-27.66 -0.78,-10.13 -1.17,-20.26 -1.17,-30.39 0,-10.91 0.39,-21.43 1.56,-31.17 0.78,-9.74 2.73,-18.31 5.84,-25.71 2.73,-7.4 7.01,-13.24 12.47,-17.53 5.45,-4.29 12.86,-6.62 22.21,-6.62 6.62,0 12.47,1.56 17.14,4.29 4.29,3.12 6.62,7.4 6.62,12.47 0,1.17 -0.39,2.73 -0.78,5.45 -0.78,2.73 -1.56,5.45 -1.95,8.18 -0.78,2.73 -1.56,5.45 -1.95,8.18 -0.78,2.73 -1.17,4.29 -1.17,5.45 0,7.01 2.73,11.69 7.79,13.64 5.06,2.34 10.52,3.51 16.36,3.51 8.18,0 14.41,-1.95 18.7,-5.45 4.29,-3.51 6.62,-9.35 6.62,-17.92 0,-6.62 -1.56,-12.47 -4.67,-17.92 -3.51,-5.06 -7.79,-9.74 -13.64,-13.63 -5.84,-3.51 -12.86,-6.62 -21.04,-8.57 -8.18,-1.95 -17.14,-3.12 -26.88,-3.12 -15.58,0 -29.22,2.73 -40.91,8.57 -12.08,5.84 -21.82,12.86 -30,21.43 -8.18,8.96 -14.41,18.31 -18.7,28.83 -4.29,10.52 -6.23,20.26 -6.23,30z"/>
  <path class="fil0" d="M1619.56 354.42l47.53 -112.59 -27.27 0 0 -5.45 98.95 0 0 5.45 -20.65 0 -73.24 175.31 16.75 41.69c1.95,4.67 3.89,9.74 6.23,15.58 2.73,5.84 5.45,11.3 8.57,16.36 3.5,5.06 7.01,8.96 10.91,12.47 4.29,3.5 8.57,5.06 13.25,5.06 1.95,0 3.89,-0.78 5.45,-1.95 1.56,-1.56 2.34,-3.89 2.34,-6.62 0,-3.9 -0.78,-7.4 -2.73,-10.13 -1.56,-2.73 -2.34,-6.62 -2.34,-11.3 0,-5.46 2.34,-9.35 6.62,-12.08 4.28,-2.73 8.96,-4.29 14.02,-4.29 6.62,0 12.47,1.56 17.53,5.06 4.67,3.51 7.01,8.96 7.01,16.36 0,9.74 -3.51,17.53 -10.91,23.37 -7.79,5.46 -17.14,8.18 -28.83,8.18 -10.91,0 -19.48,-2.73 -26.1,-8.18 -6.62,-5.45 -12.47,-14.02 -17.53,-25.71 -5.06,-11.3 -10.91,-24.15 -16.75,-38.57 -5.84,-14.8 -12.47,-31.95 -20.26,-51.04 -7.4,-19.09 -16.36,-41.29 -26.88,-65.84 -10.52,-24.54 -22.99,-52.59 -37.4,-83.76l-17.92 0 0 -5.45 56.49 0 0 5.45 -32.34 0 49.48 112.59z"/>
  <g id="_105554249406528">
   <path class="fil0" d="M991.14 535.25l-47.53 -112.59 27.27 0 0 -5.45 -98.95 0 0 5.45 20.65 0 73.24 175.31 -16.75 41.69c-1.95,4.67 -3.89,9.74 -6.23,15.58 -2.73,5.84 -5.45,11.3 -8.57,16.36 -3.5,5.06 -7.01,8.96 -10.91,12.47 -4.29,3.5 -8.57,5.06 -13.25,5.06 -1.95,0 -3.89,-0.78 -5.45,-1.95 -1.56,-1.56 -2.34,-3.89 -2.34,-6.62 0,-3.9 0.78,-7.4 2.73,-10.13 1.56,-2.73 2.34,-6.62 2.34,-11.3 0,-5.46 -2.34,-9.35 -6.62,-12.08 -4.28,-2.73 -8.96,-4.29 -14.02,-4.29 -6.62,0 -12.47,1.56 -17.53,5.06 -4.67,3.51 -7.01,8.96 -7.01,16.36 0,9.74 3.51,17.53 10.91,23.37 7.79,5.46 17.14,8.18 28.83,8.18 10.91,0 19.48,-2.73 26.1,-8.18 6.62,-5.45 12.47,-14.02 17.53,-25.71 5.06,-11.3 10.91,-24.15 16.75,-38.57 5.84,-14.8 12.47,-31.95 20.26,-51.04 7.4,-19.09 16.36,-41.29 26.88,-65.84 10.52,-24.54 22.99,-52.59 37.4,-83.76l17.92 0 0 -5.45 -56.49 0 0 5.45 32.34 0 -49.48 112.59z"/>
   <path class="fil0" d="M1148.33 487.72l0 51.42c0,7.4 -0.78,14.02 -2.34,19.09 -1.56,5.45 -3.51,9.74 -6.23,12.85 -2.73,3.51 -5.45,5.84 -8.57,7.4 -3.51,1.56 -6.62,2.34 -10.13,2.34 -5.84,0 -10.52,-1.56 -14.02,-4.29 -3.51,-2.73 -5.84,-5.84 -7.4,-9.74 -1.95,-3.89 -2.73,-7.79 -3.12,-12.08 -0.39,-4.29 -0.78,-7.79 -0.78,-10.91 0,-7.79 1.17,-14.02 3.9,-19.09 2.34,-5.06 5.45,-8.96 9.35,-12.47 3.89,-3.51 8.18,-6.23 13.24,-8.57 5.06,-1.95 9.74,-4.29 14.8,-6.62 3.51,-1.95 6.23,-3.51 7.79,-5.06 1.17,-1.17 2.34,-2.73 2.73,-4.29l0.78 0zm78.69 90.38l-3.51 -3.51c-1.95,2.34 -4.29,4.29 -6.23,5.45 -2.34,1.17 -5.06,1.95 -8.57,1.95 -5.84,0 -9.35,-1.95 -10.52,-5.84 -1.56,-3.5 -2.34,-7.79 -2.34,-12.85l0 -96.62c0,-10.91 -1.95,-19.87 -5.46,-27.27 -3.89,-7.01 -8.96,-12.47 -15.19,-16.75 -6.62,-4.29 -14.02,-7.01 -22.59,-8.57 -8.96,-1.56 -18.31,-2.34 -28.05,-2.34 -8.57,0 -16.75,0.78 -24.54,2.73 -8.18,1.95 -15.19,4.29 -21.43,7.79 -6.23,3.51 -11.3,8.18 -14.8,13.25 -3.9,5.45 -5.84,11.69 -5.84,18.31 0,4.29 0.78,7.79 2.34,10.52 1.17,2.73 3.12,4.67 5.06,5.84 1.95,1.56 4.67,2.34 7.4,2.73 2.73,0.39 5.06,0.78 7.79,0.78 1.95,0 4.29,0 7.01,-0.39 2.73,0 5.06,-0.39 7.79,-1.56 2.34,-1.17 4.29,-2.73 6.23,-5.06 1.95,-1.95 2.73,-5.07 2.73,-8.96 0,-0.78 0,-2.34 -0.39,-4.29 -0.39,-1.95 -0.39,-4.29 -0.78,-6.62 -0.39,-2.34 -0.39,-4.67 -0.78,-6.62 -0.39,-1.95 -0.39,-3.12 -0.39,-3.9 0,-7.4 2.34,-12.47 6.62,-15.19 4.29,-2.73 9.74,-3.9 15.58,-3.9 9.35,0 15.58,2.73 19.09,8.57 3.5,5.84 5.06,12.08 5.06,19.09l0 23.76c0,5.06 -0.78,8.96 -1.95,12.08 -1.56,3.12 -4.29,5.84 -7.79,8.18 -3.51,2.73 -8.57,5.06 -15.19,7.01 -6.62,2.34 -15.58,5.06 -26.1,8.18 -6.62,1.95 -12.86,4.29 -18.7,6.23 -6.23,2.34 -11.69,5.06 -16.36,8.57 -5.06,3.51 -8.96,7.79 -11.69,12.86 -3.12,5.06 -4.67,11.69 -4.67,19.09 0,7.4 1.56,13.25 5.06,18.31 3.51,5.06 7.79,9.35 13.25,12.08 5.45,2.73 11.3,5.06 17.92,6.23 6.62,1.17 12.86,1.95 19.09,1.95 13.64,0 24.15,-1.95 31.55,-5.45 7.4,-3.51 12.86,-10.52 17.14,-21.04l0.78 0c1.56,8.18 5.45,14.8 12.08,19.48 6.23,4.67 15.97,7.01 29.22,7.01 5.84,0 12.47,-0.39 19.48,-1.56 6.62,-1.17 12.08,-4.29 15.58,-9.74z"/>
   <path class="fil0" d="M1215.15 417.2l0 5.45 25.32 0 0 156.22 -25.32 0 0 5.45 103.63 0 0 -5.45 -30.78 0 0 -99.73c0,-8.18 1.17,-15.97 3.9,-22.6 2.34,-6.62 5.06,-12.08 8.57,-16.75 3.51,-4.67 7.01,-8.18 10.91,-10.91 3.9,-2.34 7.01,-3.51 9.74,-3.51 2.34,0 4.29,0.39 5.45,1.17 1.17,1.17 1.95,1.95 2.34,3.12 0.39,1.17 0.78,2.34 1.17,3.51 0,1.17 0,1.56 0,1.56 0,0.39 0,1.17 -0.39,3.12 -0.39,1.95 -0.39,3.89 -0.78,5.84 -0.39,2.34 -0.78,4.29 -1.17,6.23 -0.39,1.95 -0.39,3.51 -0.39,4.29 0,6.62 2.34,11.3 7.4,13.64 5.06,2.73 10.52,3.9 16.36,3.9 8.18,0 14.41,-2.34 18.31,-6.62 3.51,-4.29 5.46,-10.52 5.46,-18.31 0,-10.52 -3.51,-18.7 -10.13,-24.54 -6.62,-5.84 -15.58,-8.57 -26.49,-8.57 -12.86,0 -23.37,3.5 -31.17,10.52 -8.18,7.4 -14.41,15.97 -19.09,25.71l-0.78 0 0 -32.72 -72.07 0z"/>
   <path class="fil0" d="M1355.98 578.88l0 5.45 97.79 0 0 -5.45 -24.54 0 0 -83.37c0,-12.08 1.17,-22.21 3.89,-31.17 2.73,-8.96 6.23,-16.36 10.52,-22.21 4.29,-5.84 8.96,-10.52 14.8,-13.63 5.84,-2.73 11.69,-4.29 17.92,-4.29 7.4,0 13.64,2.34 17.92,7.4 4.29,5.06 6.62,13.25 6.62,24.15l0 123.11 -24.15 0 0 5.45 97.78 0 0 -5.45 -26.1 0 0 -109.86c0,-17.14 -4.67,-30.78 -14.02,-40.52 -9.74,-9.74 -22.98,-14.8 -40.13,-14.8 -11.69,0 -21.43,1.56 -29.22,5.06 -7.79,3.5 -14.02,7.79 -19.09,12.47 -5.06,4.67 -8.57,9.35 -11.3,14.02 -2.73,5.06 -4.29,8.57 -5.45,10.91l-0.78 0 0 -38.96 -72.46 0 0 5.45 25.71 0 0 156.22 -25.71 0z"/>
  </g>
  <polygon class="fil0" points="1575.9,425.71 1575.9,428.93 1566.75,428.93 1566.75,452.82 1563.04,452.82 1563.04,428.93 1553.89,428.93 1553.89,425.71 "/>
  <path id="1" class="fil0" d="M1579.18 425.71l5.25 0 7.79 22.91 7.75 -22.91 5.18 0 0 27.11 -3.48 0 0 -15.99c0,-0.57 0,-1.47 0.04,-2.76 0.04,-1.29 0.04,-2.65 0.04,-4.12l-7.75 22.88 -3.63 0 -7.79 -22.88 0 0.83c0,0.68 0,1.66 0.04,3.03 0.04,1.36 0.08,2.38 0.08,3.03l0 15.99 -3.52 0 0 -27.11z"/>
  <path class="fil1" d="M-0 42.29l0 671.85c0,23.22 9.33,42.28 20.69,42.28l717.4 0c11.37,0 20.69,-19.06 20.69,-42.28l0 -671.85c0,-23.22 -9.33,-42.29 -20.69,-42.29l-717.4 0c-11.36,0 -20.69,19.06 -20.69,42.29z"/>
  <path class="fil2" d="M225.28 296.03c0,-16.08 0.73,-33.62 2.92,-51.89 1.46,-18.27 5.12,-35.81 10.23,-51.16 5.12,-15.35 13.16,-28.5 24.12,-38.74 10.96,-10.23 24.85,-15.35 43.12,-15.35 12.43,0 23.39,2.92 31.43,8.04 8.04,5.12 15.35,13.89 20.47,26.31 5.12,12.43 9.5,28.5 11.69,48.24 2.19,20.47 2.93,45.31 2.93,74.55 0,24.12 -0.73,45.31 -1.46,64.32 -1.46,19.73 -4.39,35.81 -8.04,49.7 -4.39,13.89 -10.23,24.12 -18.27,31.43 -8.04,7.31 -19,10.96 -32.89,10.96 -20.47,0 -36.54,-5.12 -47.51,-16.08 -11.7,-10.23 -20.47,-23.39 -26.31,-39.47 -5.85,-15.35 -9.5,-32.89 -10.23,-51.16 -1.46,-18.27 -2.19,-34.35 -2.19,-49.7zm-89.17 -146.91l0 497 -48.24 0 0 10.23 187.1 0 0 -10.23 -49.7 0 0 -246.31 1.46 0c6.58,16.81 16.81,31.43 30.7,43.85 13.89,12.42 31.43,18.27 54.09,18.27 24.12,0 45.31,-4.39 65.05,-13.89 19.73,-9.5 36.54,-21.93 50.43,-37.27 13.89,-15.35 24.12,-32.89 32.16,-52.62 8.04,-19.73 11.7,-40.93 11.7,-62.86 0,-16.81 -2.92,-35.08 -8.77,-54.82 -6.58,-19.73 -16.08,-37.27 -28.5,-54.08 -13.16,-16.81 -29.97,-30.7 -49.7,-41.66 -19.73,-10.96 -43.85,-16.08 -72.36,-16.08 -42.39,0 -70.9,21.2 -86.24,64.32l-1.46 0 0 -54.08 -135.94 0 0 10.23 48.24 0z"/>
  <path class="fil2" d="M543.73 360.35l-89.17 -211.22 51.16 0 0 -10.23 -162.68 0 0 10.23 15.77 0 137.41 328.89 -31.43 78.2c-3.41,8.77 -7.43,18.52 -12.06,29.24 -4.63,10.72 -9.99,20.83 -16.08,30.33 -6.09,9.5 -12.91,17.42 -20.47,23.75 -7.55,6.33 -15.71,9.5 -24.48,9.5 -3.9,0 -7.31,-1.34 -10.23,-4.02 -2.92,-2.68 -4.39,-6.7 -4.39,-12.06 0,-7.31 1.58,-13.64 4.75,-19 3.17,-5.36 4.75,-12.43 4.75,-21.2 0,-10.23 -4.14,-17.91 -12.43,-23.02 -8.28,-5.11 -17.05,-7.67 -26.31,-7.67 -12.67,0 -23.51,3.17 -32.52,9.5 -9.01,6.33 -13.52,16.57 -13.52,30.7 0,18.52 6.94,33.01 20.83,43.49 13.89,10.48 31.79,15.71 53.72,15.71 20.47,0 36.79,-5.12 48.97,-15.35 12.18,-10.23 23.14,-26.31 32.89,-48.24 9.74,-20.95 20.1,-45.19 31.06,-72.72 10.96,-27.53 23.63,-59.32 38.01,-95.38 14.37,-36.06 31.31,-77.23 50.8,-123.52 19.49,-46.29 42.88,-98.67 70.16,-157.14l33.62 0 0 -10.23 -105.98 0 0 10.23 60.66 0 -92.82 211.22z"/>
  <polygon class="fil2" points="679.51,101.04 679.51,104.26 670.36,104.26 670.36,128.16 666.66,128.16 666.66,104.26 657.51,104.26 657.51,101.04 "/>
  <path id="1" class="fil2" d="M682.8 101.04l5.25 0 7.79 22.91 7.75 -22.91 5.18 0 0 27.11 -3.48 0 0 -15.99c0,-0.57 0,-1.47 0.04,-2.76 0.04,-1.29 0.04,-2.65 0.04,-4.12l-7.75 22.88 -3.63 0 -7.79 -22.88 0 0.83c0,0.68 0,1.66 0.04,3.03 0.04,1.36 0.08,2.38 0.08,3.03l0 15.99 -3.52 0 0 -27.11z"/>
  <path class="fil3" d="M1021.18 654.79c-0.39,-3.48 -1.54,-6.13 -3.59,-8.06 -2.04,-1.93 -4.69,-2.87 -7.89,-2.87 -1.93,0 -3.75,0.39 -5.47,1.22 -1.71,0.83 -3.26,2.04 -4.53,3.59 -1.27,1.55 -2.32,3.42 -3.04,5.58 -0.72,2.15 -1.1,4.64 -1.1,7.34 0,3.48 0.66,6.51 1.99,9.16 1.33,2.65 3.09,4.69 5.36,6.18 2.26,1.49 4.75,2.21 7.45,2.21 2.38,0 4.75,-0.55 7.07,-1.66 2.32,-1.05 4.2,-2.65 5.69,-4.69l1.43 1.16c-1.6,2.15 -3.31,3.86 -5.13,5.02 -1.82,1.16 -3.64,1.99 -5.47,2.43 -1.82,0.39 -3.53,0.61 -5.02,0.61 -2.76,0 -5.3,-0.5 -7.56,-1.49 -2.32,-0.99 -4.31,-2.38 -5.96,-4.2 -1.71,-1.77 -2.98,-3.86 -3.87,-6.24 -0.94,-2.38 -1.38,-4.91 -1.38,-7.68 0,-2.59 0.39,-5.13 1.22,-7.62 0.77,-2.49 1.93,-4.69 3.53,-6.68 1.6,-1.99 3.59,-3.59 6.02,-4.75 2.37,-1.16 5.19,-1.77 8.39,-1.77 2.04,0 4.03,0.28 5.85,0.83 1.82,0.55 3.59,1.38 5.3,2.54l-0.28 -2.98 2.98 0 0 12.81 -1.99 0z"/>
  <path id="1" class="fil3" d="M1042.33 682.01c-2.59,0 -4.91,-0.61 -7.01,-1.82 -2.1,-1.16 -3.75,-2.81 -4.97,-4.97 -1.27,-2.1 -1.88,-4.53 -1.88,-7.23 0,-2.93 0.61,-5.52 1.82,-7.84 1.22,-2.32 2.87,-4.14 4.97,-5.52 2.1,-1.33 4.47,-1.99 7.07,-1.99 2.6,0 4.91,0.61 7.01,1.82 2.1,1.27 3.76,2.93 5.02,5.02 1.27,2.1 1.88,4.47 1.88,7.18 0,2.81 -0.61,5.41 -1.82,7.73 -1.27,2.37 -2.93,4.2 -5.02,5.58 -2.1,1.38 -4.47,2.04 -7.07,2.04zm0.44 -2.21c1.93,0 3.48,-0.55 4.64,-1.66 1.16,-1.1 1.99,-2.54 2.49,-4.31 0.5,-1.77 0.72,-3.64 0.72,-5.58 0,-1.66 -0.17,-3.31 -0.44,-4.91 -0.33,-1.6 -0.83,-3.04 -1.49,-4.36 -0.66,-1.27 -1.49,-2.32 -2.54,-3.09 -1.05,-0.77 -2.32,-1.16 -3.81,-1.16 -1.93,0 -3.48,0.55 -4.69,1.66 -1.22,1.1 -2.1,2.54 -2.65,4.31 -0.61,1.77 -0.88,3.64 -0.88,5.69 0,2.26 0.33,4.42 0.94,6.46 0.61,2.04 1.6,3.75 2.87,5.02 1.27,1.27 2.93,1.93 4.86,1.93z"/>
  <path id="2" class="fil3" d="M1060.93 681.12l0 -1.66c1.16,0 1.93,-0.28 2.38,-0.88 0.44,-0.55 0.72,-1.33 0.77,-2.38 0.06,-0.99 0.11,-2.15 0.11,-3.48l0.06 -12.59c0,-0.61 0,-1.16 0.06,-1.77 0,-0.61 0.06,-1.22 0.17,-1.82 -0.66,0.06 -1.32,0.06 -1.93,0.11 -0.66,0.06 -1.32,0.06 -1.99,0.11l0 -2.32c1.6,0 2.87,-0.06 3.7,-0.22 0.83,-0.17 1.44,-0.33 1.82,-0.55 0.39,-0.22 0.72,-0.44 0.99,-0.72l1.6 0c0.06,0.28 0.06,0.55 0.11,0.88 0,0.33 0,0.72 0.06,1.1 0.06,0.39 0.06,0.88 0.06,1.38 0.83,-0.72 1.71,-1.33 2.71,-1.88 0.94,-0.55 1.99,-0.99 3.09,-1.33 1.05,-0.33 2.15,-0.5 3.2,-0.5 3.2,0 5.52,0.99 7.01,2.98 1.49,2.04 2.21,5.13 2.21,9.39l0 10.27c0,0.72 0,1.38 0,1.93 -0.06,0.61 -0.11,1.21 -0.22,1.82 0.61,-0.06 1.16,-0.06 1.77,-0.11 0.55,0 1.1,0 1.71,-0.06l0 2.26 -11.26 0 0 -1.66c1.16,0 1.93,-0.28 2.37,-0.88 0.44,-0.55 0.72,-1.33 0.77,-2.38 0.06,-0.99 0.11,-2.15 0.11,-3.48l0 -7.73c-0.06,-3.15 -0.55,-5.58 -1.55,-7.18 -1.05,-1.6 -2.65,-2.43 -4.8,-2.37 -1.33,0.06 -2.59,0.39 -3.86,1.05 -1.27,0.66 -2.37,1.49 -3.2,2.54 0.06,0.28 0.06,0.61 0.06,0.99 0,0.39 0,0.77 0,1.16l-0.06 14.08c0,0.72 0,1.38 0,1.93 -0.06,0.61 -0.11,1.21 -0.22,1.82 0.61,-0.06 1.16,-0.06 1.77,-0.11 0.55,0 1.1,0 1.71,-0.06l0 2.26 -11.26 0z"/>
  <path id="3" class="fil3" d="M1094.45 681.12l0 -1.66c1.16,0 1.93,-0.28 2.38,-0.88 0.44,-0.55 0.72,-1.33 0.77,-2.38 0.06,-0.99 0.11,-2.15 0.11,-3.48l0.06 -12.59c0,-0.61 0,-1.16 0.06,-1.77 0,-0.61 0.06,-1.22 0.17,-1.82 -0.66,0.06 -1.32,0.06 -1.93,0.11 -0.66,0.06 -1.32,0.06 -1.99,0.11l0 -2.32c1.6,0 2.87,-0.06 3.7,-0.22 0.83,-0.17 1.44,-0.33 1.82,-0.55 0.39,-0.22 0.72,-0.44 0.99,-0.72l1.6 0c0.06,0.28 0.06,0.55 0.11,0.88 0,0.33 0,0.72 0.06,1.1 0.06,0.39 0.06,0.88 0.06,1.38 0.83,-0.72 1.71,-1.33 2.71,-1.88 0.94,-0.55 1.99,-0.99 3.09,-1.33 1.05,-0.33 2.15,-0.5 3.2,-0.5 3.2,0 5.52,0.99 7.01,2.98 1.49,2.04 2.21,5.13 2.21,9.39l0 10.27c0,0.72 0,1.38 0,1.93 -0.06,0.61 -0.11,1.21 -0.22,1.82 0.61,-0.06 1.16,-0.06 1.77,-0.11 0.55,0 1.1,0 1.71,-0.06l0 2.26 -11.26 0 0 -1.66c1.16,0 1.93,-0.28 2.37,-0.88 0.44,-0.55 0.72,-1.33 0.77,-2.38 0.06,-0.99 0.11,-2.15 0.11,-3.48l0 -7.73c-0.06,-3.15 -0.55,-5.58 -1.55,-7.18 -1.05,-1.6 -2.65,-2.43 -4.8,-2.37 -1.33,0.06 -2.59,0.39 -3.86,1.05 -1.27,0.66 -2.37,1.49 -3.2,2.54 0.06,0.28 0.06,0.61 0.06,0.99 0,0.39 0,0.77 0,1.16l-0.06 14.08c0,0.72 0,1.38 0,1.93 -0.06,0.61 -0.11,1.21 -0.22,1.82 0.61,-0.06 1.16,-0.06 1.77,-0.11 0.55,0 1.1,0 1.71,-0.06l0 2.26 -11.26 0z"/>
  <path id="4" class="fil3" d="M1141.32 682.01c-2.54,0 -4.8,-0.61 -6.85,-1.82 -2.04,-1.16 -3.7,-2.87 -4.86,-5.08 -1.16,-2.15 -1.77,-4.75 -1.77,-7.73 0,-2.59 0.61,-4.97 1.77,-7.23 1.16,-2.26 2.76,-4.09 4.86,-5.47 2.1,-1.38 4.53,-2.04 7.29,-2.04 1.55,0 2.98,0.22 4.36,0.72 1.33,0.5 2.48,1.27 3.53,2.26 1.05,1.05 1.82,2.32 2.43,3.81 0.61,1.55 0.88,3.37 0.88,5.41l-19.43 0.33c0,2.81 0.33,5.24 0.94,7.34 0.61,2.15 1.55,3.75 2.93,4.91 1.38,1.16 3.09,1.77 5.24,1.77 1.16,0 2.32,-0.22 3.53,-0.61 1.16,-0.39 2.26,-0.94 3.31,-1.66 1.05,-0.72 1.88,-1.49 2.48,-2.32l1.33 1.1c-0.99,1.55 -2.21,2.76 -3.59,3.7 -1.38,0.94 -2.82,1.6 -4.31,1.99 -1.49,0.39 -2.82,0.61 -4.09,0.61zm-7.62 -19.16l14.08 0c0,-1.32 -0.17,-2.59 -0.55,-3.86 -0.39,-1.22 -1.05,-2.21 -1.93,-3.04 -0.88,-0.77 -2.04,-1.16 -3.48,-1.16 -2.15,0 -3.92,0.61 -5.3,1.88 -1.43,1.27 -2.37,3.37 -2.81,6.18z"/>
  <path id="5" class="fil3" d="M1171.08 682.01c-2.48,0 -4.75,-0.55 -6.79,-1.71 -2.1,-1.1 -3.75,-2.71 -4.97,-4.86 -1.27,-2.1 -1.88,-4.64 -1.88,-7.62 0,-1.93 0.33,-3.75 1.05,-5.58 0.72,-1.82 1.71,-3.42 2.98,-4.91 1.27,-1.44 2.76,-2.59 4.53,-3.42 1.77,-0.83 3.7,-1.27 5.85,-1.27 2.04,0 3.86,0.33 5.41,0.94 1.49,0.61 2.7,1.44 3.53,2.48 0.83,1.05 1.27,2.15 1.27,3.37 0,0.83 -0.22,1.49 -0.66,2.04 -0.44,0.61 -1.1,0.88 -1.93,0.88 -0.94,0.06 -1.55,-0.28 -1.93,-0.88 -0.39,-0.61 -0.61,-1.1 -0.61,-1.6 0,-0.39 0.06,-0.77 0.17,-1.16 0.11,-0.39 0.33,-0.72 0.66,-1.05 -0.28,-0.88 -0.83,-1.54 -1.55,-1.99 -0.72,-0.39 -1.49,-0.66 -2.26,-0.83 -0.83,-0.11 -1.49,-0.17 -1.99,-0.17 -2.49,0 -4.58,0.99 -6.29,2.98 -1.71,2.04 -2.59,4.97 -2.59,8.78 0,2.49 0.39,4.64 1.21,6.57 0.77,1.93 1.88,3.42 3.31,4.47 1.44,1.1 3.09,1.66 4.97,1.66 1.71,0 3.37,-0.44 4.97,-1.38 1.6,-0.94 2.82,-2.04 3.7,-3.37l1.44 1.1c-0.94,1.55 -2.1,2.81 -3.42,3.75 -1.38,0.94 -2.76,1.66 -4.14,2.1 -1.44,0.44 -2.76,0.66 -4.03,0.66z"/>
  <path id="6" class="fil3" d="M1197.08 682.01c-0.83,0 -1.71,-0.11 -2.59,-0.33 -0.88,-0.28 -1.71,-0.72 -2.43,-1.44 -0.77,-0.72 -1.38,-1.71 -1.82,-3.09 -0.44,-1.33 -0.66,-3.09 -0.66,-5.3l0.11 -16.01 -4.25 0.06 0 -2.37c0.94,-0.06 1.93,-0.39 2.93,-1.1 0.99,-0.66 1.88,-1.6 2.71,-2.76 0.77,-1.16 1.33,-2.49 1.6,-3.86l1.88 0 0 7.73 9.27 0 0 2.15 -9.27 0.11 -0.11 15.35c0,1.66 0.17,3.04 0.44,4.2 0.28,1.16 0.72,2.04 1.33,2.65 0.61,0.61 1.44,0.88 2.43,0.88 1.05,0 1.99,-0.28 2.93,-0.88 0.88,-0.61 1.66,-1.38 2.37,-2.43l1.49 1.21c-0.83,1.22 -1.6,2.15 -2.37,2.87 -0.83,0.72 -1.6,1.22 -2.32,1.6 -0.72,0.33 -1.44,0.55 -2.04,0.66 -0.61,0.06 -1.16,0.11 -1.6,0.11z"/>
  <path id="7" class="fil3" d="M1208.07 679.47c1.16,0 1.93,-0.28 2.38,-0.88 0.44,-0.55 0.72,-1.33 0.77,-2.38 0.06,-0.99 0.11,-2.15 0.11,-3.48l0 -12.59c0,-0.61 0,-1.16 0.06,-1.71 0.06,-0.5 0.11,-1.16 0.17,-1.88 -0.66,0.06 -1.32,0.06 -1.93,0.11 -0.66,0.06 -1.32,0.06 -1.99,0.11l0 -2.32c1.6,0 2.87,-0.06 3.75,-0.22 0.88,-0.17 1.55,-0.33 2.04,-0.55 0.44,-0.22 0.77,-0.44 1.05,-0.72l1.6 0 0 22.31c0,0.72 0,1.38 0,1.93 -0.06,0.61 -0.11,1.21 -0.22,1.82 0.61,-0.06 1.16,-0.06 1.77,-0.11 0.55,0 1.1,0 1.71,-0.06l0 2.26 -11.26 0 0 -1.66zm5.36 -31.97c-0.77,0 -1.44,-0.33 -2.04,-0.94 -0.61,-0.61 -0.88,-1.38 -0.88,-2.32 0,-0.94 0.33,-1.71 0.94,-2.38 0.61,-0.61 1.27,-0.94 2.04,-0.94 0.83,0 1.54,0.33 2.15,0.94 0.55,0.66 0.83,1.44 0.83,2.38 0,0.94 -0.28,1.71 -0.88,2.32 -0.61,0.61 -1.33,0.94 -2.15,0.94z"/>
  <path id="8" class="fil3" d="M1223.58 681.12l0 -1.66c1.16,0 1.93,-0.28 2.38,-0.88 0.44,-0.55 0.72,-1.33 0.77,-2.38 0.06,-0.99 0.11,-2.15 0.11,-3.48l0.06 -12.59c0,-0.61 0,-1.16 0.06,-1.77 0,-0.61 0.06,-1.22 0.17,-1.82 -0.66,0.06 -1.32,0.06 -1.93,0.11 -0.66,0.06 -1.32,0.06 -1.99,0.11l0 -2.32c1.6,0 2.87,-0.06 3.7,-0.22 0.83,-0.17 1.44,-0.33 1.82,-0.55 0.39,-0.22 0.72,-0.44 0.99,-0.72l1.6 0c0.06,0.28 0.06,0.55 0.11,0.88 0,0.33 0,0.72 0.06,1.1 0.06,0.39 0.06,0.88 0.06,1.38 0.83,-0.72 1.71,-1.33 2.71,-1.88 0.94,-0.55 1.99,-0.99 3.09,-1.33 1.05,-0.33 2.15,-0.5 3.2,-0.5 3.2,0 5.52,0.99 7.01,2.98 1.49,2.04 2.21,5.13 2.21,9.39l0 10.27c0,0.72 0,1.38 0,1.93 -0.06,0.61 -0.11,1.21 -0.22,1.82 0.61,-0.06 1.16,-0.06 1.77,-0.11 0.55,0 1.1,0 1.71,-0.06l0 2.26 -11.26 0 0 -1.66c1.16,0 1.93,-0.28 2.37,-0.88 0.44,-0.55 0.72,-1.33 0.77,-2.38 0.06,-0.99 0.11,-2.15 0.11,-3.48l0 -7.73c-0.06,-3.15 -0.55,-5.58 -1.55,-7.18 -1.05,-1.6 -2.65,-2.43 -4.8,-2.37 -1.33,0.06 -2.59,0.39 -3.86,1.05 -1.27,0.66 -2.37,1.49 -3.2,2.54 0.06,0.28 0.06,0.61 0.06,0.99 0,0.39 0,0.77 0,1.16l-0.06 14.08c0,0.72 0,1.38 0,1.93 -0.06,0.61 -0.11,1.21 -0.22,1.82 0.61,-0.06 1.16,-0.06 1.77,-0.11 0.55,0 1.1,0 1.71,-0.06l0 2.26 -11.26 0z"/>
  <path id="9" class="fil3" d="M1270.4 696.08c-3.31,0 -5.96,-0.39 -8.01,-1.1 -2.04,-0.72 -3.48,-1.66 -4.42,-2.82 -0.94,-1.16 -1.38,-2.32 -1.38,-3.53 0,-1.16 0.28,-2.15 0.83,-2.98 0.5,-0.88 1.16,-1.66 1.99,-2.26 0.77,-0.61 1.55,-1.1 2.26,-1.38 -1.16,-0.39 -2.1,-0.94 -2.76,-1.66 -0.72,-0.66 -1.05,-1.55 -1.05,-2.71 0,-1.27 0.5,-2.48 1.55,-3.64 1.05,-1.1 2.37,-1.77 3.97,-2.04 -1.71,-0.83 -3.04,-1.93 -4.03,-3.37 -1.05,-1.44 -1.55,-3.09 -1.55,-5.02 0,-2.21 0.55,-4.14 1.71,-5.8 1.16,-1.6 2.59,-2.87 4.42,-3.81 1.77,-0.88 3.59,-1.33 5.52,-1.33 1.21,0 2.43,0.17 3.64,0.5 1.21,0.39 2.32,0.88 3.37,1.55 0.39,-1.05 0.88,-1.93 1.6,-2.76 0.66,-0.83 1.43,-1.44 2.32,-1.93 0.88,-0.44 1.82,-0.66 2.76,-0.66 0.94,0 1.71,0.22 2.21,0.72 0.5,0.5 0.72,1.22 0.72,2.04 0,0.28 -0.06,0.55 -0.22,0.94 -0.17,0.39 -0.39,0.66 -0.72,0.94 -0.39,0.28 -0.83,0.39 -1.44,0.39 -0.61,0 -1.16,-0.17 -1.55,-0.55 -0.39,-0.39 -0.66,-0.83 -0.77,-1.38 -0.94,0.17 -1.65,0.55 -2.15,1.27 -0.5,0.72 -0.88,1.55 -1.05,2.37 0.88,0.83 1.6,1.77 2.15,2.93 0.5,1.16 0.77,2.38 0.77,3.64 0,2.04 -0.55,3.92 -1.6,5.52 -1.1,1.6 -2.54,2.87 -4.31,3.76 -1.77,0.94 -3.7,1.38 -5.74,1.38 -0.72,0 -1.33,-0.06 -1.82,-0.17 -0.5,-0.06 -1.16,-0.11 -1.88,-0.11 -1.38,0 -2.48,0.33 -3.31,0.99 -0.83,0.66 -1.16,1.44 -0.88,2.37 0.28,0.88 1.22,1.44 2.71,1.66 1.49,0.28 3.53,0.44 6.07,0.55 2.82,0.11 5.24,0.44 7.29,0.99 2.04,0.55 3.59,1.38 4.69,2.6 1.05,1.16 1.6,2.7 1.6,4.69 0,1.49 -0.39,2.82 -1.16,3.98 -0.83,1.16 -1.88,2.1 -3.15,2.87 -1.32,0.77 -2.76,1.38 -4.36,1.77 -1.6,0.39 -3.26,0.61 -4.86,0.61zm-0.06 -2.15c3.15,0 5.63,-0.61 7.4,-1.77 1.77,-1.16 2.65,-2.54 2.65,-4.14 0,-1.38 -0.44,-2.37 -1.38,-3.09 -0.94,-0.72 -2.15,-1.21 -3.75,-1.49 -1.6,-0.28 -3.42,-0.44 -5.47,-0.5 -0.99,-0.06 -1.99,-0.06 -2.93,-0.11 -0.94,-0.06 -1.88,-0.17 -2.76,-0.33 -0.99,0.66 -1.77,1.49 -2.32,2.43 -0.55,0.94 -0.83,1.99 -0.83,3.04 0,1.82 0.88,3.26 2.59,4.36 1.71,1.05 3.97,1.6 6.79,1.6zm-0.72 -22.64c1.38,0 2.48,-0.33 3.42,-0.99 0.88,-0.66 1.55,-1.55 2.04,-2.71 0.44,-1.16 0.66,-2.43 0.66,-3.86 0,-1.6 -0.22,-3.15 -0.72,-4.53 -0.5,-1.38 -1.16,-2.54 -2.1,-3.37 -0.94,-0.83 -2.15,-1.27 -3.59,-1.27 -1.99,0 -3.54,0.72 -4.58,2.21 -1.1,1.49 -1.66,3.37 -1.66,5.58 0,1.77 0.28,3.31 0.77,4.64 0.5,1.38 1.27,2.43 2.26,3.15 0.94,0.77 2.1,1.16 3.48,1.16z"/>
  <path id="10" class="fil3" d="M1301.65 695.2l0 -1.66c1.16,0 1.93,-0.28 2.37,-0.83 0.44,-0.61 0.72,-1.38 0.77,-2.38 0.06,-1.05 0.11,-2.21 0.11,-3.53l0.11 -26.67c0,-0.61 0,-1.16 0.06,-1.77 0,-0.61 0.06,-1.22 0.17,-1.82 -0.66,0.06 -1.33,0.06 -1.93,0.11 -0.66,0.06 -1.33,0.06 -1.99,0.11l0 -2.32c1.6,0 2.87,-0.06 3.7,-0.22 0.83,-0.17 1.44,-0.33 1.82,-0.55 0.39,-0.22 0.66,-0.44 0.94,-0.72l1.66 0c0.06,0.39 0.06,0.77 0.11,1.27 0.06,0.5 0.06,1.1 0.11,1.71 1.1,-0.99 2.43,-1.82 3.97,-2.43 1.49,-0.61 3.04,-0.88 4.58,-0.88 2.15,0 4.14,0.55 5.96,1.66 1.82,1.1 3.31,2.65 4.47,4.69 1.16,2.04 1.71,4.53 1.71,7.34 0,3.15 -0.66,5.85 -1.93,8.23 -1.33,2.38 -3.04,4.2 -5.19,5.47 -2.15,1.33 -4.47,1.99 -6.96,1.99 -1.27,0 -2.49,-0.17 -3.53,-0.44 -1.1,-0.33 -2.15,-0.77 -3.09,-1.38l0 9.17c0,0.72 0,1.38 0,1.99 -0.06,0.55 -0.11,1.16 -0.22,1.77 0.61,-0.06 1.16,-0.06 1.77,-0.06 0.55,-0.06 1.1,-0.06 1.71,-0.11l0 2.26 -11.26 0zm14.52 -15.4c1.77,0 3.31,-0.55 4.58,-1.66 1.27,-1.05 2.21,-2.54 2.93,-4.47 0.66,-1.88 0.99,-4.03 0.99,-6.46 0,-1.99 -0.28,-3.92 -0.83,-5.74 -0.61,-1.82 -1.49,-3.26 -2.71,-4.42 -1.27,-1.16 -2.87,-1.71 -4.91,-1.71 -1.27,0 -2.43,0.28 -3.59,0.88 -1.16,0.61 -2.15,1.38 -2.93,2.21 0,0.17 0,0.33 0.06,0.61 0,0.28 0,0.77 0,1.44 0,0.72 0,1.71 0,3.04 0,1.38 0,3.2 0,5.47 -0.06,2.26 -0.06,5.19 -0.06,8.67 0.94,0.72 1.93,1.22 3.04,1.6 1.05,0.39 2.21,0.55 3.42,0.55z"/>
  <path id="11" class="fil3" d="M1348.8 682.01c-2.59,0 -4.91,-0.61 -7.01,-1.82 -2.1,-1.16 -3.75,-2.81 -4.97,-4.97 -1.27,-2.1 -1.88,-4.53 -1.88,-7.23 0,-2.93 0.61,-5.52 1.82,-7.84 1.22,-2.32 2.87,-4.14 4.97,-5.52 2.1,-1.33 4.47,-1.99 7.07,-1.99 2.6,0 4.91,0.61 7.01,1.82 2.1,1.27 3.76,2.93 5.02,5.02 1.27,2.1 1.88,4.47 1.88,7.18 0,2.81 -0.61,5.41 -1.82,7.73 -1.27,2.37 -2.93,4.2 -5.02,5.58 -2.1,1.38 -4.47,2.04 -7.07,2.04zm0.44 -2.21c1.93,0 3.48,-0.55 4.64,-1.66 1.16,-1.1 1.99,-2.54 2.49,-4.31 0.5,-1.77 0.72,-3.64 0.72,-5.58 0,-1.66 -0.17,-3.31 -0.44,-4.91 -0.33,-1.6 -0.83,-3.04 -1.49,-4.36 -0.66,-1.27 -1.49,-2.32 -2.54,-3.09 -1.05,-0.77 -2.32,-1.16 -3.81,-1.16 -1.93,0 -3.48,0.55 -4.69,1.66 -1.22,1.1 -2.1,2.54 -2.65,4.31 -0.61,1.77 -0.88,3.64 -0.88,5.69 0,2.26 0.33,4.42 0.94,6.46 0.61,2.04 1.6,3.75 2.87,5.02 1.27,1.27 2.93,1.93 4.86,1.93z"/>
  <path id="12" class="fil3" d="M1366.85 679.47c1.16,0 1.93,-0.28 2.37,-0.88 0.44,-0.55 0.72,-1.33 0.77,-2.38 0.06,-0.99 0.11,-2.15 0.11,-3.48l0 -26.11c0,-0.61 0,-1.16 0.06,-1.71 0,-0.5 0.06,-1.16 0.11,-1.88 -0.66,0.06 -1.33,0.06 -1.93,0.11 -0.66,0.06 -1.33,0.06 -1.99,0.11l0 -2.32c1.6,0 2.87,-0.06 3.81,-0.22 0.88,-0.17 1.55,-0.33 2.04,-0.55 0.44,-0.22 0.77,-0.44 1.05,-0.72l1.6 0 0.06 35.83c0,0.72 0,1.38 -0.06,1.93 -0.06,0.61 -0.11,1.21 -0.22,1.82 0.61,-0.06 1.16,-0.06 1.77,-0.11 0.55,0 1.1,0 1.71,-0.06l0 2.26 -11.26 0 0 -1.66z"/>
  <path id="13" class="fil3" d="M1382.42 679.47c1.16,0 1.93,-0.28 2.38,-0.88 0.44,-0.55 0.72,-1.33 0.77,-2.38 0.06,-0.99 0.11,-2.15 0.11,-3.48l0 -12.59c0,-0.61 0,-1.16 0.06,-1.71 0.06,-0.5 0.11,-1.16 0.17,-1.88 -0.66,0.06 -1.32,0.06 -1.93,0.11 -0.66,0.06 -1.32,0.06 -1.99,0.11l0 -2.32c1.6,0 2.87,-0.06 3.75,-0.22 0.88,-0.17 1.55,-0.33 2.04,-0.55 0.44,-0.22 0.77,-0.44 1.05,-0.72l1.6 0 0 22.31c0,0.72 0,1.38 0,1.93 -0.06,0.61 -0.11,1.21 -0.22,1.82 0.61,-0.06 1.16,-0.06 1.77,-0.11 0.55,0 1.1,0 1.71,-0.06l0 2.26 -11.26 0 0 -1.66zm5.36 -31.97c-0.77,0 -1.44,-0.33 -2.04,-0.94 -0.61,-0.61 -0.88,-1.38 -0.88,-2.32 0,-0.94 0.33,-1.71 0.94,-2.38 0.61,-0.61 1.27,-0.94 2.04,-0.94 0.83,0 1.54,0.33 2.15,0.94 0.55,0.66 0.83,1.44 0.83,2.38 0,0.94 -0.28,1.71 -0.88,2.32 -0.61,0.61 -1.33,0.94 -2.15,0.94z"/>
  <path id="14" class="fil3" d="M1411.41 682.01c-2.48,0 -4.75,-0.55 -6.79,-1.71 -2.1,-1.1 -3.75,-2.71 -4.97,-4.86 -1.27,-2.1 -1.88,-4.64 -1.88,-7.62 0,-1.93 0.33,-3.75 1.05,-5.58 0.72,-1.82 1.71,-3.42 2.98,-4.91 1.27,-1.44 2.76,-2.59 4.53,-3.42 1.77,-0.83 3.7,-1.27 5.85,-1.27 2.04,0 3.86,0.33 5.41,0.94 1.49,0.61 2.7,1.44 3.53,2.48 0.83,1.05 1.27,2.15 1.27,3.37 0,0.83 -0.22,1.49 -0.66,2.04 -0.44,0.61 -1.1,0.88 -1.93,0.88 -0.94,0.06 -1.55,-0.28 -1.93,-0.88 -0.39,-0.61 -0.61,-1.1 -0.61,-1.6 0,-0.39 0.06,-0.77 0.17,-1.16 0.11,-0.39 0.33,-0.72 0.66,-1.05 -0.28,-0.88 -0.83,-1.54 -1.55,-1.99 -0.72,-0.39 -1.49,-0.66 -2.26,-0.83 -0.83,-0.11 -1.49,-0.17 -1.99,-0.17 -2.49,0 -4.58,0.99 -6.29,2.98 -1.71,2.04 -2.59,4.97 -2.59,8.78 0,2.49 0.39,4.64 1.21,6.57 0.77,1.93 1.88,3.42 3.31,4.47 1.44,1.1 3.09,1.66 4.97,1.66 1.71,0 3.37,-0.44 4.97,-1.38 1.6,-0.94 2.82,-2.04 3.7,-3.37l1.44 1.1c-0.94,1.55 -2.1,2.81 -3.42,3.75 -1.38,0.94 -2.76,1.66 -4.14,2.1 -1.44,0.44 -2.76,0.66 -4.03,0.66z"/>
  <path id="15" class="fil3" d="M1431.29 696.08c-1.16,0 -2.1,-0.28 -2.93,-0.83 -0.83,-0.55 -1.22,-1.38 -1.22,-2.54 0,-0.66 0.22,-1.27 0.66,-1.82 0.44,-0.55 0.99,-0.83 1.71,-0.83 0.88,-0.06 1.49,0.22 1.82,0.83 0.28,0.61 0.44,1.1 0.44,1.55 0,0.11 0,0.22 0,0.39 0,0.11 0,0.22 -0.06,0.39 0.11,0.06 0.33,0.11 0.61,0.11 0.44,0 0.94,-0.17 1.44,-0.55 0.5,-0.39 0.99,-0.88 1.38,-1.6 0.5,-0.83 1.05,-2.04 1.71,-3.64 0.61,-1.6 1.33,-3.53 2.15,-5.8l-8.61 -18.44c-0.94,-2.04 -1.66,-3.7 -2.04,-4.91 -0.44,-1.22 -0.72,-2.1 -0.88,-2.71l-2.65 0.11 0 -2.26 11.43 0 0 1.66 -0.22 0c-1.55,0.11 -2.38,0.66 -2.54,1.71 -0.17,1.05 0.28,2.65 1.27,4.8l6.46 13.86c0.83,-2.38 1.66,-4.69 2.43,-7.01 0.77,-2.26 1.55,-4.58 2.32,-6.85 0.28,-0.83 0.61,-1.66 0.94,-2.54 0.28,-0.83 0.61,-1.6 0.94,-2.32 0.28,-0.66 0.55,-1.1 0.83,-1.27l-3.81 0.22 0 -2.26 8.67 0 0 1.66c-1.38,0.5 -2.38,1.38 -3.04,2.54 -0.72,1.22 -1.38,2.76 -2.1,4.64l-6.9 19.27c-1.1,3.09 -2.1,5.74 -3.04,7.9 -0.94,2.15 -1.93,3.75 -3.04,4.91 -1.1,1.1 -2.48,1.66 -4.14,1.66z"/>
  <path id="16" class="fil3" d="M1481.08 682.01c-0.83,0 -1.71,-0.11 -2.59,-0.33 -0.88,-0.28 -1.71,-0.72 -2.43,-1.44 -0.77,-0.72 -1.38,-1.71 -1.82,-3.09 -0.44,-1.33 -0.66,-3.09 -0.66,-5.3l0.11 -16.01 -4.25 0.06 0 -2.37c0.94,-0.06 1.93,-0.39 2.93,-1.1 0.99,-0.66 1.88,-1.6 2.71,-2.76 0.77,-1.16 1.33,-2.49 1.6,-3.86l1.88 0 0 7.73 9.27 0 0 2.15 -9.27 0.11 -0.11 15.35c0,1.66 0.17,3.04 0.44,4.2 0.28,1.16 0.72,2.04 1.33,2.65 0.61,0.61 1.44,0.88 2.43,0.88 1.05,0 1.99,-0.28 2.93,-0.88 0.88,-0.61 1.66,-1.38 2.37,-2.43l1.49 1.21c-0.83,1.22 -1.6,2.15 -2.37,2.87 -0.83,0.72 -1.6,1.22 -2.32,1.6 -0.72,0.33 -1.44,0.55 -2.04,0.66 -0.61,0.06 -1.16,0.11 -1.6,0.11z"/>
  <path id="17" class="fil3" d="M1505.76 682.01c-2.59,0 -4.91,-0.61 -7.01,-1.82 -2.1,-1.16 -3.75,-2.81 -4.97,-4.97 -1.27,-2.1 -1.88,-4.53 -1.88,-7.23 0,-2.93 0.61,-5.52 1.82,-7.84 1.22,-2.32 2.87,-4.14 4.97,-5.52 2.1,-1.33 4.47,-1.99 7.07,-1.99 2.6,0 4.91,0.61 7.01,1.82 2.1,1.27 3.76,2.93 5.02,5.02 1.27,2.1 1.88,4.47 1.88,7.18 0,2.81 -0.61,5.41 -1.82,7.73 -1.27,2.37 -2.93,4.2 -5.02,5.58 -2.1,1.38 -4.47,2.04 -7.07,2.04zm0.44 -2.21c1.93,0 3.48,-0.55 4.64,-1.66 1.16,-1.1 1.99,-2.54 2.49,-4.31 0.5,-1.77 0.72,-3.64 0.72,-5.58 0,-1.66 -0.17,-3.31 -0.44,-4.91 -0.33,-1.6 -0.83,-3.04 -1.49,-4.36 -0.66,-1.27 -1.49,-2.32 -2.54,-3.09 -1.05,-0.77 -2.32,-1.16 -3.81,-1.16 -1.93,0 -3.48,0.55 -4.69,1.66 -1.22,1.1 -2.1,2.54 -2.65,4.31 -0.61,1.77 -0.88,3.64 -0.88,5.69 0,2.26 0.33,4.42 0.94,6.46 0.61,2.04 1.6,3.75 2.87,5.02 1.27,1.27 2.93,1.93 4.86,1.93z"/>
  <path id="18" class="fil3" d="M1538.39 695.2l0 -1.66c1.16,0 1.93,-0.28 2.37,-0.83 0.44,-0.61 0.72,-1.38 0.77,-2.38 0.06,-1.05 0.11,-2.21 0.11,-3.53l0.11 -26.67c0,-0.61 0,-1.16 0.06,-1.77 0,-0.61 0.06,-1.22 0.17,-1.82 -0.66,0.06 -1.33,0.06 -1.93,0.11 -0.66,0.06 -1.33,0.06 -1.99,0.11l0 -2.32c1.6,0 2.87,-0.06 3.7,-0.22 0.83,-0.17 1.44,-0.33 1.82,-0.55 0.39,-0.22 0.66,-0.44 0.94,-0.72l1.66 0c0.06,0.39 0.06,0.77 0.11,1.27 0.06,0.5 0.06,1.1 0.11,1.71 1.1,-0.99 2.43,-1.82 3.97,-2.43 1.49,-0.61 3.04,-0.88 4.58,-0.88 2.15,0 4.14,0.55 5.96,1.66 1.82,1.1 3.31,2.65 4.47,4.69 1.16,2.04 1.71,4.53 1.71,7.34 0,3.15 -0.66,5.85 -1.93,8.23 -1.33,2.38 -3.04,4.2 -5.19,5.47 -2.15,1.33 -4.47,1.99 -6.96,1.99 -1.27,0 -2.49,-0.17 -3.53,-0.44 -1.1,-0.33 -2.15,-0.77 -3.09,-1.38l0 9.17c0,0.72 0,1.38 0,1.99 -0.06,0.55 -0.11,1.16 -0.22,1.77 0.61,-0.06 1.16,-0.06 1.77,-0.06 0.55,-0.06 1.1,-0.06 1.71,-0.11l0 2.26 -11.26 0zm14.52 -15.4c1.77,0 3.31,-0.55 4.58,-1.66 1.27,-1.05 2.21,-2.54 2.93,-4.47 0.66,-1.88 0.99,-4.03 0.99,-6.46 0,-1.99 -0.28,-3.92 -0.83,-5.74 -0.61,-1.82 -1.49,-3.26 -2.71,-4.42 -1.27,-1.16 -2.87,-1.71 -4.91,-1.71 -1.27,0 -2.43,0.28 -3.59,0.88 -1.16,0.61 -2.15,1.38 -2.93,2.21 0,0.17 0,0.33 0.06,0.61 0,0.28 0,0.77 0,1.44 0,0.72 0,1.71 0,3.04 0,1.38 0,3.2 0,5.47 -0.06,2.26 -0.06,5.19 -0.06,8.67 0.94,0.72 1.93,1.22 3.04,1.6 1.05,0.39 2.21,0.55 3.42,0.55z"/>
  <path id="19" class="fil3" d="M1585.21 682.01c-2.54,0 -4.8,-0.61 -6.85,-1.82 -2.04,-1.16 -3.7,-2.87 -4.86,-5.08 -1.16,-2.15 -1.77,-4.75 -1.77,-7.73 0,-2.59 0.61,-4.97 1.77,-7.23 1.16,-2.26 2.76,-4.09 4.86,-5.47 2.1,-1.38 4.53,-2.04 7.29,-2.04 1.55,0 2.98,0.22 4.36,0.72 1.33,0.5 2.48,1.27 3.53,2.26 1.05,1.05 1.82,2.32 2.43,3.81 0.61,1.55 0.88,3.37 0.88,5.41l-19.43 0.33c0,2.81 0.33,5.24 0.94,7.34 0.61,2.15 1.55,3.75 2.93,4.91 1.38,1.16 3.09,1.77 5.24,1.77 1.16,0 2.32,-0.22 3.53,-0.61 1.16,-0.39 2.26,-0.94 3.31,-1.66 1.05,-0.72 1.88,-1.49 2.48,-2.32l1.33 1.1c-0.99,1.55 -2.21,2.76 -3.59,3.7 -1.38,0.94 -2.82,1.6 -4.31,1.99 -1.49,0.39 -2.82,0.61 -4.09,0.61zm-7.62 -19.16l14.08 0c0,-1.32 -0.17,-2.59 -0.55,-3.86 -0.39,-1.22 -1.05,-2.21 -1.93,-3.04 -0.88,-0.77 -2.04,-1.16 -3.48,-1.16 -2.15,0 -3.92,0.61 -5.3,1.88 -1.43,1.27 -2.37,3.37 -2.81,6.18z"/>
  <path id="20" class="fil3" d="M1615.19 682.01c-2.59,0 -4.91,-0.61 -7.01,-1.82 -2.1,-1.16 -3.75,-2.81 -4.97,-4.97 -1.27,-2.1 -1.88,-4.53 -1.88,-7.23 0,-2.93 0.61,-5.52 1.82,-7.84 1.22,-2.32 2.87,-4.14 4.97,-5.52 2.1,-1.33 4.47,-1.99 7.07,-1.99 2.6,0 4.91,0.61 7.01,1.82 2.1,1.27 3.76,2.93 5.02,5.02 1.27,2.1 1.88,4.47 1.88,7.18 0,2.81 -0.61,5.41 -1.82,7.73 -1.27,2.37 -2.93,4.2 -5.02,5.58 -2.1,1.38 -4.47,2.04 -7.07,2.04zm0.44 -2.21c1.93,0 3.48,-0.55 4.64,-1.66 1.16,-1.1 1.99,-2.54 2.49,-4.31 0.5,-1.77 0.72,-3.64 0.72,-5.58 0,-1.66 -0.17,-3.31 -0.44,-4.91 -0.33,-1.6 -0.83,-3.04 -1.49,-4.36 -0.66,-1.27 -1.49,-2.32 -2.54,-3.09 -1.05,-0.77 -2.32,-1.16 -3.81,-1.16 -1.93,0 -3.48,0.55 -4.69,1.66 -1.22,1.1 -2.1,2.54 -2.65,4.31 -0.61,1.77 -0.88,3.64 -0.88,5.69 0,2.26 0.33,4.42 0.94,6.46 0.61,2.04 1.6,3.75 2.87,5.02 1.27,1.27 2.93,1.93 4.86,1.93z"/>
  <path id="21" class="fil3" d="M1633.3 695.2l0 -1.66c1.16,0 1.93,-0.28 2.37,-0.83 0.44,-0.61 0.72,-1.38 0.77,-2.38 0.06,-1.05 0.11,-2.21 0.11,-3.53l0.11 -26.67c0,-0.61 0,-1.16 0.06,-1.77 0,-0.61 0.06,-1.22 0.17,-1.82 -0.66,0.06 -1.33,0.06 -1.93,0.11 -0.66,0.06 -1.33,0.06 -1.99,0.11l0 -2.32c1.6,0 2.87,-0.06 3.7,-0.22 0.83,-0.17 1.44,-0.33 1.82,-0.55 0.39,-0.22 0.66,-0.44 0.94,-0.72l1.66 0c0.06,0.39 0.06,0.77 0.11,1.27 0.06,0.5 0.06,1.1 0.11,1.71 1.1,-0.99 2.43,-1.82 3.97,-2.43 1.49,-0.61 3.04,-0.88 4.58,-0.88 2.15,0 4.14,0.55 5.96,1.66 1.82,1.1 3.31,2.65 4.47,4.69 1.16,2.04 1.71,4.53 1.71,7.34 0,3.15 -0.66,5.85 -1.93,8.23 -1.33,2.38 -3.04,4.2 -5.19,5.47 -2.15,1.33 -4.47,1.99 -6.96,1.99 -1.27,0 -2.49,-0.17 -3.53,-0.44 -1.1,-0.33 -2.15,-0.77 -3.09,-1.38l0 9.17c0,0.72 0,1.38 0,1.99 -0.06,0.55 -0.11,1.16 -0.22,1.77 0.61,-0.06 1.16,-0.06 1.77,-0.06 0.55,-0.06 1.1,-0.06 1.71,-0.11l0 2.26 -11.26 0zm14.52 -15.4c1.77,0 3.31,-0.55 4.58,-1.66 1.27,-1.05 2.21,-2.54 2.93,-4.47 0.66,-1.88 0.99,-4.03 0.99,-6.46 0,-1.99 -0.28,-3.92 -0.83,-5.74 -0.61,-1.82 -1.49,-3.26 -2.71,-4.42 -1.27,-1.16 -2.87,-1.71 -4.91,-1.71 -1.27,0 -2.43,0.28 -3.59,0.88 -1.16,0.61 -2.15,1.38 -2.93,2.21 0,0.17 0,0.33 0.06,0.61 0,0.28 0,0.77 0,1.44 0,0.72 0,1.71 0,3.04 0,1.38 0,3.2 0,5.47 -0.06,2.26 -0.06,5.19 -0.06,8.67 0.94,0.72 1.93,1.22 3.04,1.6 1.05,0.39 2.21,0.55 3.42,0.55z"/>
  <path id="22" class="fil3" d="M1666.21 679.47c1.16,0 1.93,-0.28 2.37,-0.88 0.44,-0.55 0.72,-1.33 0.77,-2.38 0.06,-0.99 0.11,-2.15 0.11,-3.48l0 -26.11c0,-0.61 0,-1.16 0.06,-1.71 0,-0.5 0.06,-1.16 0.11,-1.88 -0.66,0.06 -1.33,0.06 -1.93,0.11 -0.66,0.06 -1.33,0.06 -1.99,0.11l0 -2.32c1.6,0 2.87,-0.06 3.81,-0.22 0.88,-0.17 1.55,-0.33 2.04,-0.55 0.44,-0.22 0.77,-0.44 1.05,-0.72l1.6 0 0.06 35.83c0,0.72 0,1.38 -0.06,1.93 -0.06,0.61 -0.11,1.21 -0.22,1.82 0.61,-0.06 1.16,-0.06 1.77,-0.11 0.55,0 1.1,0 1.71,-0.06l0 2.26 -11.26 0 0 -1.66z"/>
  <path id="23" class="fil3" d="M1695.14 682.01c-2.54,0 -4.8,-0.61 -6.85,-1.82 -2.04,-1.16 -3.7,-2.87 -4.86,-5.08 -1.16,-2.15 -1.77,-4.75 -1.77,-7.73 0,-2.59 0.61,-4.97 1.77,-7.23 1.16,-2.26 2.76,-4.09 4.86,-5.47 2.1,-1.38 4.53,-2.04 7.29,-2.04 1.55,0 2.98,0.22 4.36,0.72 1.33,0.5 2.48,1.27 3.53,2.26 1.05,1.05 1.82,2.32 2.43,3.81 0.61,1.55 0.88,3.37 0.88,5.41l-19.43 0.33c0,2.81 0.33,5.24 0.94,7.34 0.61,2.15 1.55,3.75 2.93,4.91 1.38,1.16 3.09,1.77 5.24,1.77 1.16,0 2.32,-0.22 3.53,-0.61 1.16,-0.39 2.26,-0.94 3.31,-1.66 1.05,-0.72 1.88,-1.49 2.48,-2.32l1.33 1.1c-0.99,1.55 -2.21,2.76 -3.59,3.7 -1.38,0.94 -2.82,1.6 -4.31,1.99 -1.49,0.39 -2.82,0.61 -4.09,0.61zm-7.62 -19.16l14.08 0c0,-1.32 -0.17,-2.59 -0.55,-3.86 -0.39,-1.22 -1.05,-2.21 -1.93,-3.04 -0.88,-0.77 -2.04,-1.16 -3.48,-1.16 -2.15,0 -3.92,0.61 -5.3,1.88 -1.43,1.27 -2.37,3.37 -2.81,6.18z"/>
 </g>
</svg>
